<svg xmlns="http://www.w3.org/2000/svg" width="95" height="95" viewBox="0 0 95 95"><path data-name="Path 219" d="M68.66 43.29H36.5l6.92-6.92a4.243 4.243 0 0 0-6-6L23.36 44.5a4.22 4.22 0 0 0-.53.65 3.238 3.238 0 0 0-.17.32 2.48 2.48 0 0 0-.35.84 2.3 2.3 0 0 1-.1.35 4.23 4.23 0 0 0 0 1.65 1.241 1.241 0 0 0 .11.36 4.13 4.13 0 0 0 .13.43 4.18 4.18 0 0 0 .21.41 3.239 3.239 0 0 0 .17.32 4.23 4.23 0 0 0 .53.64L37.5 64.59a4.243 4.243 0 0 0 6-6l-7-6.88h32.16a4.21 4.21 0 1 0 0-8.42z"/><path data-name="Path 220" d="M47.5 0A47.5 47.5 0 1 0 95 47.5 47.5 47.5 0 0 0 47.5 0zm0 86.58A39.08 39.08 0 1 1 86.58 47.5 39.08 39.08 0 0 1 47.5 86.58z"/></svg>