<svg xmlns="http://www.w3.org/2000/svg" width="96" height="96" viewBox="0 0 96 96"><g data-name="Bio Park"><path data-name="Path 1" d="M77 73.5h-3V71h2a.5.5 0 0 0 0-1h-2v-2h2a.5.5 0 0 0 0-1h-2v-3h1.5a.5.5 0 0 0 0-1H74v-1a.5.5 0 0 0-1 0v1H57v-1.5a.5.5 0 0 0-1 0V63h-1.5a.5.5 0 0 0 0 1H56v3h-1a.5.5 0 0 0 0 1h1v2h-1a.5.5 0 0 0 0 1h1v2.5H39v-7.41a14.23 14.23 0 0 0 5.5.91 9.51 9.51 0 0 0 9.5-9.5 9.1 9.1 0 0 0-5.85-8.27A11.13 11.13 0 0 0 49 45.5a9.54 9.54 0 0 0-6.22-8.91A7.4 7.4 0 0 0 44 32.5a7.51 7.51 0 0 0-7.5-7.5h-.65a5.12 5.12 0 0 0-10.21-.26A5.136 5.136 0 0 0 26.13 35h3.25a8.6 8.6 0 0 0 .43 1.23A8.8 8.8 0 0 0 24 44.5a11.07 11.07 0 0 0 .81 4.78A8.82 8.82 0 0 0 20 57.5a9.51 9.51 0 0 0 9.5 9.5 11.27 11.27 0 0 0 4.5-.73v7.23H20a1.5 1.5 0 0 0 0 3h57a1.5 1.5 0 0 0 0-3zM57 64h16v3H57zm0 4h16v2H57zm0 3h16v2.5H57zM26.13 34a4.13 4.13 0 0 1 0-8.25h.5v-.5a4.12 4.12 0 0 1 8.24-.07A7.51 7.51 0 0 0 29 32.5a9 9 0 0 0 .15 1.5zM21 57.5a7.85 7.85 0 0 1 4.7-7.5l.53-.23-.31-.49A9.18 9.18 0 0 1 25 44.5c0-3.44 2.12-6.26 5.67-7.53l.57-.2-.31-.52A8.33 8.33 0 0 1 30 32.5a6.5 6.5 0 1 1 13 0 6.43 6.43 0 0 1-1.42 4l-.47.59.72.21A8.53 8.53 0 0 1 48 45.5a10.7 10.7 0 0 1-1 3.8l-.21.48.49.19C50.82 51.32 53 54.21 53 57.5a8.51 8.51 0 0 1-8.5 8.5c-3.79 0-6.24-.88-7.5-2.67v-1.6l6.83-5.85a.5.5 0 0 0-.65-.76L37 60.41V49.74l4.81-3.85a.5.5 0 1 0-.62-.78L37 48.46v-6a.5.5 0 1 0-1 0v6.79l-4.15-4.15a.502.502 0 1 0-.71.71l4.86 4.9v10.58l-6.15-6.15a.502.502 0 0 0-.71.71L36 62.71v.62C34.47 65.54 32.38 66 29.5 66a8.51 8.51 0 0 1-8.5-8.5zm14 8.23a6.53 6.53 0 0 0 1.51-1.39A6.12 6.12 0 0 0 38 65.59v7.91h-3z"/><path data-name="Path 2" d="M61.13 42.88h9.25a5.13 5.13 0 0 0 .48-10.23 5.12 5.12 0 0 0-10.21 0 5.13 5.13 0 0 0 .48 10.23zm0-9.25h.5v-.5a4.13 4.13 0 0 1 8.25 0v.5h.5a4.13 4.13 0 0 1 0 8.25h-9.25a4.13 4.13 0 0 1 0-8.25z"/><path data-name="Path 3" d="M48 0a48 48 0 1 0 48 48A48 48 0 0 0 48 0zm0 95a47 47 0 1 1 47-47 47 47 0 0 1-47 47z" fill="#e94400"/></g></svg>