<svg xmlns="http://www.w3.org/2000/svg" width="96" height="96" viewBox="0 0 96 96"><path data-name="Path 4" d="M48 0a48 48 0 1 0 48 48A48 48 0 0 0 48 0zm0 95a47 47 0 1 1 47-47 47 47 0 0 1-47 47z" fill="#e94400"/><path data-name="Path 5" d="M72.58 37.14h-1.47V27a7.21 7.21 0 0 0-7.2-7.2H32.08a7.21 7.21 0 0 0-7.2 7.2v10.14h-1.8A2.87 2.87 0 0 0 20.22 40v7a2.87 2.87 0 0 0 2.86 2.86h1.8v18h2.17v5.59a2.74 2.74 0 0 0 2.74 2.74h3.08a2.74 2.74 0 0 0 2.74-2.74v-5.59h24.94v5.59a2.74 2.74 0 0 0 2.74 2.74h3.08a2.74 2.74 0 0 0 2.74-2.74v-5.59h2v-18h1.47a3.2 3.2 0 0 0 3.2-3.2v-6.33a3.2 3.2 0 0 0-3.2-3.19zm-47.7 11.5h-1.8A1.64 1.64 0 0 1 21.45 47v-7a1.64 1.64 0 0 1 1.64-1.64h1.8zm1.23 1.23V29.7h21.28v22.77H26.11zm8.27 23.59a1.51 1.51 0 0 1-1.5 1.54h-3.09a1.51 1.51 0 0 1-1.51-1.51v-5.63h6.1zm33.5 0a1.51 1.51 0 0 1-1.5 1.54h-3.09a1.51 1.51 0 0 1-1.51-1.51v-5.63h6.1zm2-6.82H26.11V53.7h43.78zm0-29.5v15.33H48.61V29.7h21.28zm0-8.67H26.11V27a6 6 0 0 1 6-6h31.81a6 6 0 0 1 6 6zm4.67 18.2a2 2 0 0 1-2 2h-1.44V38.36h1.47a2 2 0 0 1 2 2z"/><path data-name="Path 6" d="M63.67 63.95a3.11 3.11 0 1 0-3.11-3.11 3.11 3.11 0 0 0 3.11 3.11zm0-5a1.89 1.89 0 1 1-1.89 1.89 1.89 1.89 0 0 1 1.89-1.89z"/><path data-name="Path 7" d="M32.22 63.95a3.11 3.11 0 1 0-3.11-3.11 3.11 3.11 0 0 0 3.11 3.11zm0-5a1.89 1.89 0 1 1-1.89 1.89 1.89 1.89 0 0 1 1.89-1.89z"/><path data-name="Rectangle 1" d="M37.67 58.39h20.67v1.23H37.67z"/><path data-name="Rectangle 2" d="M37.67 62.72h20.67v1.23H37.67z"/><path data-name="Path 8" d="M63.05 26.91h3.19v-3.19h-3.19zm1.23-2H65v.73h-.73z"/><path data-name="Path 9" d="M30.3 26.91h3.19v-3.19H30.3zm1.23-2h.73v.73h-.73z"/><path data-name="Path 10" d="M42.58 26.91h11.17v-3.19H42.58zm1.23-2h8.71v.73h-8.71z"/></svg>