<svg xmlns="http://www.w3.org/2000/svg" width="96.49" height="97.39" viewBox="0 0 96.49 97.39"><g data-name="Car wash"><path data-name="Path 11" d="M24.5 61.26a6.78 6.78 0 1 0-6.78-6.78 6.78 6.78 0 0 0 6.78 6.78zm0-11.5a4.72 4.72 0 1 1-4.72 4.72 4.72 4.72 0 0 1 4.72-4.72z"/><path data-name="Path 12" d="M78.32 11.93a8.61 8.61 0 0 0-7.7-4.81H48.88a8.62 8.62 0 0 0-7.7 4.81l-8.33 17.08h53.8zm-1.85.9l6.88 14.12H60.78V9.18h9.84a6.54 6.54 0 0 1 5.85 3.65zm-33.47 0a6.54 6.54 0 0 1 5.85-3.65h9.84v17.77H36.15z"/><path data-name="Path 13" d="M96.49 30.68v-2.06H95L84.85 7.83a11.42 11.42 0 0 0-10.21-6.38H44.86a11.42 11.42 0 0 0-10.21 6.38l-10.2 20.92-23 5.41v21.35h9.72a13.35 13.35 0 0 0 26.62 0h5.83l.92 5a48 48 0 0 1 0 17.7l-1.14 6.18a9.08 9.08 0 0 0 10.93 10.56l8.2-1.86v4.3h2.06v-4.72a29.19 29.19 0 0 1 11.32.3l5 1.13v3.29H83v-2.83l1.7.39a9.08 9.08 0 0 0 10.9-10.56l-1.17-6.26a48 48 0 0 1 0-17.7l1.17-6.26a9.08 9.08 0 0 0-10.93-10.49l-8.76 2a29.17 29.17 0 0 1-12.82 0l-8.76-2a9.06 9.06 0 0 0-11 9.77h-5.52a13.35 13.35 0 0 0-26.62 0H3.53V43.18h7v-9l15.34-3.61L36.5 8.73a9.35 9.35 0 0 1 8.35-5.22h29.79A9.35 9.35 0 0 1 83 8.73l10.7 21.95zM76.37 90.95a31.25 31.25 0 0 0-12-.34 2.68 2.68 0 0 0-.88-1.15l-7.82-5.69a.63.63 0 0 1-.26-.51v-5a5.1 5.1 0 0 1 4.06-5v8.53h2.06v-18.5a2.03 2.03 0 1 1 4.06 0v9.69h2.06V59.67a2.03 2.03 0 1 1 4.06 0v13.31h2.06V61.79a2.03 2.03 0 0 1 4.06 0v11.19h2.06v-8.19a2.03 2.03 0 0 1 4.06 0v19.33a2.66 2.66 0 0 1-.74 1.85l-1.14 1.19a4.27 4.27 0 0 0-1.19 3v1.86zM47.46 47.48a7 7 0 0 1 6.42-1.79l8.76 2a31.28 31.28 0 0 0 13.73 0l8.76-2a7 7 0 0 1 8.45 8.13l-1.17 6.26a50.119 50.119 0 0 0 0 18.46l1.17 6.26a7 7 0 0 1-8.45 8.13L83 92.45v-2.33a2.22 2.22 0 0 1 .62-1.54l1.1-1.19A4.72 4.72 0 0 0 86 84.12V64.79a4.1 4.1 0 0 0-4.09-4.09 4 4 0 0 0-2.08.59 4.07 4.07 0 0 0-6.3-2.9 4.08 4.08 0 0 0-8 1.28v.09a4 4 0 0 0-2-.56 4.1 4.1 0 0 0-4.09 4.09v7.93a7.16 7.16 0 0 0-6.12 7.07v5a2.7 2.7 0 0 0 1.13 2.1l7.72 5.62-8.3 1.88a7 7 0 0 1-8.45-8.13l1.17-6.26a50.12 50.12 0 0 0 0-18.46l-1.17-6.26a7 7 0 0 1 2.04-6.3zm-23-4.3a11.334 11.334 0 1 0 .04 0zm-16-2.06H3.53V35.8l4.94-1.16z"/><path data-name="Path 14" d="M11.51 19.2l2.2-7.35L21 9.34l-7.4-2.11L11 0 8.79 7.39 1.53 9.87l7.39 2.11zM10.46 8.96l.7-2.35.84 2.31 2.13.61-2.13.72-.71 2.35-.79-2.31-2.13-.61z"/><path data-name="Path 15" d="M13.17 74.39l-2.23-9.22-1.72 9.33L0 76.78l9.33 1.72 2.23 9.22 1.72-9.33 9.22-2.23zm-1.68 2.26l-.21 1.12-.28-1.06-1.12-.21 1.12-.26.21-1.12.27 1.11 1.12.16z"/><path data-name="Path 16" d="M29.26 73.04l-1.72 9.35-9.21 2.2 9.32 1.72 2.23 9.21 1.72-9.32 9.21-2.23-9.32-1.72zm.55 11.48l-.21 1.12-.27-1.11-1.12-.21 1.11-.27.21-1.12.27 1.11 1.12.21z"/><path data-name="Rectangle 3" d="M81 33.45h5.33v2.06H81z"/><path data-name="Rectangle 4" d="M55.83 33.45h5.83v2.06h-5.83z"/></g></svg>