<svg xmlns="http://www.w3.org/2000/svg" width="96" height="96" viewBox="0 0 96 96"><path data-name="Path 17" d="M48 96a48 48 0 1 1 48-48 48 48 0 0 1-48 48zm0-95a47 47 0 1 0 47 47A47 47 0 0 0 48 1z" fill="#e94400"/><path data-name="Path 18" d="M27 64.11a2.89 2.89 0 1 0-2.89-2.89A2.89 2.89 0 0 0 27 64.11zm0-4.56a1.66 1.66 0 1 1-1.66 1.66A1.66 1.66 0 0 1 27 59.55z"/><path data-name="Path 19" d="M81.42 51.34a3 3 0 0 0-3-3H68.26v-3.76h5.65a2 2 0 0 0 2-2v-1.89a2 2 0 0 0-2-2H67v9.62h-5.7v-3.4h-1.84V28.57H60a2.41 2.41 0 0 0 0-4.82H46.62V20h5.65a2 2 0 0 0 2-2v-1.87a2 2 0 0 0-2-2h-6.88v9.59h-9.5a2.41 2.41 0 0 0 0 4.82h1.46v16.37H35v3.43H23v-3.76h5.65a2 2 0 0 0 2-2v-1.89a2 2 0 0 0-2-2h-6.8v9.62h-3.77a3 3 0 0 0-.38 5.95v23.25h61.11V54.29a3 3 0 0 0 2.61-2.95zm-6.76-10.65v1.92a.74.74 0 0 1-.74.74h-5.66v-3.4h5.65a.74.74 0 0 1 .75.74zM53 16.13V18a.74.74 0 0 1-.74.74h-5.64v-3.4h5.65a.74.74 0 0 1 .73.79zM29.47 40.69v1.92a.74.74 0 0 1-.74.74h-5.66v-3.4h5.65a.74.74 0 0 1 .75.74zm5.3-14.53A1.12 1.12 0 0 1 35.89 25H60a1.12 1.12 0 0 1 0 2.24H35.89a1.12 1.12 0 0 1-1.12-1.08zm3.81 2.41h19.65v16.34H38.58zM16.32 51.34a1.77 1.77 0 0 1 1.76-1.77H35v3.53H18a1.77 1.77 0 0 1-1.68-1.76zm7.45 24.95v-7.68h6.45v7.68zm11.28 0h-3.61v-8.9h-8.9v8.9h-3.61v-22H35zm25 0h-5.8v-7.85a6.1 6.1 0 0 0-12.19 0v7.85h-5.8V46.14h23.8zm-16.7 0v-7.85a4.805 4.805 0 0 1 9.61 0v7.82zm22.92 0v-7.68h6.45v7.68zm11.28 0H74v-8.9h-8.9v8.9h-3.64v-22h16.12zm.84-23.18h-17v-3.54h17a1.77 1.77 0 0 1 0 3.53z"/><path data-name="Path 20" d="M69.52 64.11a2.89 2.89 0 1 0-2.89-2.89 2.89 2.89 0 0 0 2.89 2.89zm0-4.56a1.66 1.66 0 1 1-1.66 1.66 1.66 1.66 0 0 1 1.66-1.66z"/><path data-name="Path 21" d="M50.42 60.14h6.1v-10.4h-6.1zM51.71 51h3.52v7.82h-3.52z"/><path data-name="Path 22" d="M39.67 60.14h6.1v-10.4h-6.1zM41 51h3.52v7.82H41z"/><path data-name="Path 23" d="M48.41 31.84a4.88 4.88 0 1 0 4.88 4.88 4.88 4.88 0 0 0-4.88-4.88zm0 8.53a3.659 3.659 0 1 1 0 .01z"/><path data-name="Path 24" d="M48.41 35.29a1.44 1.44 0 1 0 1.44 1.44 1.44 1.44 0 0 0-1.44-1.44zm0 2.52a1.075 1.075 0 1 0 0-.01z"/></svg>