<svg xmlns="http://www.w3.org/2000/svg" width="99.766" height="99.006" viewBox="0 0 99.766 99.006"><g data-name="Day Care" transform="translate(-.542 -.499)"><path data-name="Path 25" d="M50.53 64a1 1 0 0 0 .23 0 .94.94 0 0 0 1-.36l10.3-13.51a7 7 0 0 0 .22-8.25l-.08-.11a7.32 7.32 0 0 0-5-2.92 7.92 7.92 0 0 0-5.94 1.66l-.5.4-.5-.4a7.9 7.9 0 0 0-5.94-1.66 7.32 7.32 0 0 0-5 2.92l-.09.12a7 7 0 0 0 .22 8.25l10.28 13.47a1 1 0 0 0 .8.39zm-9.66-21l.07-.09a5.34 5.34 0 0 1 3.65-2.12A5.9 5.9 0 0 1 49 42.07l.89.71a1 1 0 0 0 .86.17 1 1 0 0 0 .86-.17l.89-.71a5.91 5.91 0 0 1 4.43-1.24A5.34 5.34 0 0 1 60.59 43l.06.09a5 5 0 0 1-.19 5.87l-9.7 12.7-9.7-12.74a5 5 0 0 1-.19-5.92z"/><path data-name="Path 26" d="M77.51 61.5h-1a3.46 3.46 0 0 0-2.43 1L62.33 74.25a4.45 4.45 0 0 1-3 1.31l-8.45.23 3-1.76a4.81 4.81 0 0 0 2.11-2.4 5 5 0 0 0-2.85-6.57 4.86 4.86 0 0 0-3.15-.14l-12.41 4.16a8 8 0 0 1-2.58.42H23.5a1 1 0 0 0 0 2H35a10 10 0 0 0 3.2-.53l12.3-4.16a2.82 2.82 0 0 1 1.85.11 3 3 0 0 1 1.7 4 2.82 2.82 0 0 1-1.25 1.41L37 81.64a1 1 0 1 0 1 1.72l9.28-5.47 12.06-.33a6.45 6.45 0 0 0 4.4-1.89l11.75-11.75a1.45 1.45 0 0 1 1-.42h1a2.82 2.82 0 0 1 2.74 2.14 1.44 1.44 0 0 1-.23 1.19L68.07 83A6.69 6.69 0 0 1 65 85.36L49.63 91a9 9 0 0 1-2.75.55l-21.18.85a5.93 5.93 0 0 0-4.4 2.22l-2 2.47L3 84.36l6.3-7.2a1 1 0 0 0-1.51-1.32l-7 8a1 1 0 0 0 .14 1.45l18 14a1 1 0 0 0 1.4-.16l2.59-3.24a3.93 3.93 0 0 1 2.92-1.47L47 93.56a10.94 10.94 0 0 0 3.36-.67l15.35-5.66a8.69 8.69 0 0 0 4-3L81.65 68a3.44 3.44 0 0 0 .55-2.85 4.82 4.82 0 0 0-4.69-3.65z"/><circle data-name="Ellipse 1" cx="2" cy="2" r="2" transform="translate(13.5 70.5)"/><path data-name="Path 27" d="M99.91 14.71l-18-14a1 1 0 0 0-1.4.17l-2.59 3.24A3.94 3.94 0 0 1 75 5.59l-21.18.85a11 11 0 0 0-3.36.67l-15.34 5.65a8.68 8.68 0 0 0-4 3L19.15 32a3.43 3.43 0 0 0-.55 2.85 4.82 4.82 0 0 0 4.68 3.66h1a3.42 3.42 0 0 0 2.43-1l11.75-11.76a4.46 4.46 0 0 1 3-1.31l8.54-.23L47 26a4.82 4.82 0 0 0-2.11 2.4 5 5 0 0 0 2.85 6.57 4.78 4.78 0 0 0 1.77.34 5 5 0 0 0 1.38-.2l12.35-4.17a8 8 0 0 1 2.56-.42h11.5a1 1 0 0 0 0-2H65.77a10 10 0 0 0-3.2.53l-12.3 4.13a2.86 2.86 0 0 1-1.85-.11 3 3 0 0 1-1.69-4A2.83 2.83 0 0 1 48 27.7l15.83-9.34a1 1 0 1 0-1-1.72l-9.28 5.47-12.06.33A6.45 6.45 0 0 0 37 24.33L25.31 36.08a1.43 1.43 0 0 1-1 .42h-1a2.82 2.82 0 0 1-2.74-2.14 1.43 1.43 0 0 1 .22-1.19L32.73 17a6.69 6.69 0 0 1 3.08-2.31L51.17 9a9 9 0 0 1 2.75-.55L75.1 7.6a5.93 5.93 0 0 0 4.4-2.22l2-2.47 16.35 12.73-6.3 7.2a1 1 0 0 0 1.51 1.32l7-8a1 1 0 0 0-.14-1.45z"/><circle data-name="Ellipse 2" cx="2" cy="2" r="2" transform="translate(83.3 25.5)"/></g></svg>