<svg xmlns="http://www.w3.org/2000/svg" width="46.653" height="46.656" viewBox="0 0 46.653 46.656"><path data-name="Path 28" d="M39.84 6.84a23.337 23.337 0 1 0-20.34 39.5 22.88 22.88 0 0 0 7.59 0 23.33 23.33 0 0 0 12.75-39.5zm-13 37.82a20.78 20.78 0 0 1-3.5.28 21 21 0 0 1-3.56-.3 21.6 21.6 0 1 1 7 0z"/><path data-name="Path 29" d="M26.34 16.55c0-1.86.45-2.21.95-2.73a3.16 3.16 0 0 1 1.67-.67c.54 0 1.61-.06 2.65 0V8.24a15.66 15.66 0 0 0-4.4-.4 9.41 9.41 0 0 0-3.42.88 7.43 7.43 0 0 0-2.63 2.4 5.87 5.87 0 0 0-.97 3.22 1.92 1.92 0 0 0 0 .22v5h-5l-.12 5.78h5.09l-.08 13.27a18.86 18.86 0 0 0 3.19.27 18.65 18.65 0 0 0 3.07-.28V25.34h4.42l.85-5.79h-5.27z"/></svg>