<svg xmlns="http://www.w3.org/2000/svg" width="84.63" height="100.84" viewBox="0 0 84.63 100.84"><g data-name="Game room"><path data-name="Path 31" d="M12.11 21.74a4.475 4.475 0 1 0 0-8.95 4.475 4.475 0 0 0 0 8.95zm-2.47-4.48a2.47 2.47 0 0 1 2.47-2.47 2.475 2.475 0 1 1 0 4.95 2.48 2.48 0 0 1-2.48-2.48z"/><path data-name="Path 32" d="M26.25 17.16a4.475 4.475 0 0 0 0-8.95 4.475 4.475 0 1 0 0 8.95zm-2.47-4.48a2.47 2.47 0 0 1 2.47-2.47 2.475 2.475 0 0 1 0 4.95 2.48 2.48 0 0 1-2.47-2.48z"/><path data-name="Path 33" d="M16.15 25.24a4.475 4.475 0 1 0 0 8.95 4.475 4.475 0 1 0 0-8.95zm1.73 6.23a2.46 2.46 0 0 1-1.74.72 2.475 2.475 0 1 1 0-4.95 2.47 2.47 0 0 1 1.74 4.23z"/><path data-name="Path 34" d="M30.29 20.67a4.475 4.475 0 0 0 0 8.95 4.475 4.475 0 1 0 0-8.95zm1.73 6.23a2.45 2.45 0 0 1-1.74.72 2.475 2.475 0 1 1 0-4.95 2.47 2.47 0 0 1 1.74 4.23z"/><path data-name="Path 35" d="M35.76 9.72L35.58 11 32.03 0 0 10.37l10.35 32 21.73-7-6.67 46.56 48.87 7 10.35-72.21zM2.52 11.66l28.22-9.11 9.14 28.2-28.24 9.12zm37.36 12.69h.17l.77-5.34 36.33 5.2-7.94 55.4-36.33-5.19 5.9-41.09h-.27l3.88-1.25zm32.71 62.32l-44.91-6.43 6.53-45.56 2.47-.8-6.05 42.24 40.25 5.77 8.54-59.34-40.29-5.79-.52 3.62-1.63-5.05.48-3.34 44.91 6.43z"/><path data-name="Path 36" d="M25.58 93.55v-10h-.63l-4.6-15.7a3.08 3.08 0 0 0 2.3-3v-1.68a3.09 3.09 0 0 0-3.08-3.08h-.31a6.5 6.5 0 1 0-9.36 0h-.31a3.09 3.09 0 0 0-3.08 3.08v1.67a3.08 3.08 0 0 0 2.3 3l-4.6 15.71h-.63v10a4.63 4.63 0 0 0-2.92 4.29v3H28.5v-3a4.63 4.63 0 0 0-2.92-4.29zm-20-8h18v7.67h-18zm4.5-30a4.5 4.5 0 1 1 4.5 4.5 4.5 4.5 0 0 1-4.5-4.5zM8.5 64.8v-1.63a1.08 1.08 0 0 1 1.08-1.08h10a1.08 1.08 0 0 1 1.08 1.08v1.67a1.07 1.07 0 0 1-.87 1l-.09-.29H9.46l-.08.29a1.07 1.07 0 0 1-.88-1zm2.38 3.12h7.45l4.55 15.63H6.29zm15.64 30.9H2.66v-1a2.63 2.63 0 0 1 2.63-2.62h18.59a2.63 2.63 0 0 1 2.63 2.63z"/><path data-name="Path 37" d="M48.11 62.55l2.09.3-.89 6.22a2.71 2.71 0 0 0 2.3 3.07H52a2.72 2.72 0 0 0 2.68-2.33l.89-6.23 2.09.3h.39a2.71 2.71 0 0 0 .38-5.4l-.67-.1 3.21-22.52-3.15-7.3-5.06 6.19-3.21 22.52-.67-.1a2.72 2.72 0 0 0-.77 5.38zm4.59 7a.717.717 0 1 1-1.42-.2l.89-6.22 1.42.2zm2-34l2.62-3.17 1.56 3.81-3.13 22-4.22-.64zm-6.21 23.6h.1l9.55 1.4a.712.712 0 1 1-.2 1.41l-9.55-1.41a.72.72 0 0 1 .1-1.42z"/><path data-name="Rectangle 6" d="M68.973 49.213l.893-7.9 1.987.225-.893 7.9z"/></g></svg>