<svg xmlns="http://www.w3.org/2000/svg" width="100" height="98.246" viewBox="0 0 100 98.246"><g data-name="Guest room"><path data-name="Path 38" d="M61.5 63.242h.5v-17a4 4 0 0 0-4-4H11a4 4 0 0 0-4 4v17h.5a6.51 6.51 0 0 0-6.5 6.5v27.5a1 1 0 0 0 1.09 1l5.5-.5a1 1 0 0 0 .91-1v-6h51v6a1 1 0 0 0 .92 1l6.5.5H67a1 1 0 0 0 1-1v-27.5a6.51 6.51 0 0 0-6.5-6.5zm-52.5-17a2 2 0 0 1 2-2h47a2 2 0 0 1 2 2v17h-4.5v-8.5a4 4 0 0 0-4-4h-10a4 4 0 0 0-4 4v8.5h-5v-8.5a4 4 0 0 0-4-4h-10a4 4 0 0 0-4 4v8.5H9zm44.5 17h-14v-8.5a2 2 0 0 1 2-2h10a2 2 0 0 1 2 2zm-23 0h-14v-8.5a2 2 0 0 1 2-2h10a2 2 0 0 1 2 2zm-23 2h54a4.5 4.5 0 0 1 4.5 4.5v9H3v-9a4.5 4.5 0 0 1 4.5-4.5zm54 30.57v-6.07a1 1 0 0 0-1-1h-53a1 1 0 0 0-1 1v6.09l-3.5.32v-15.41h63v15.42z"/><path data-name="Path 39" d="M93.5 49.742a1 1 0 0 0 1-1.29l-3.37-11a1 1 0 0 0-1-.71h-8.25a1 1 0 0 0-1 .71l-3.37 11a1 1 0 0 0 1 1.29h7v7H82a1 1 0 0 0 0 2h9a1 1 0 0 0 0-2h-3.5v-7zm-10.89-11h6.77l2.76 9H79.85z"/><path data-name="Path 40" d="M94.5 62.742h-17a4 4 0 0 0-4 4v21a1 1 0 0 0 2 0v-10h21v10a1 1 0 0 0 2 0v-21a4 4 0 0 0-4-4zm-19 13v-9a2 2 0 0 1 2-2h17a2 2 0 0 1 2 2v9z"/><path data-name="Path 41" d="M89.5 69.742h-7a1 1 0 0 0 0 2h7a1 1 0 0 0 0-2z"/><path data-name="Path 42" d="M99.42 22.332l-48-22a3.29 3.29 0 0 0-2.88 0L.58 22.832a1 1 0 0 0-.58.91v20a1 1 0 0 0 2 0v-19.36l47.41-22.26a1.32 1.32 0 0 1 1.17 0L98 23.882v19.36a1 1 0 0 0 2 0v-20a1 1 0 0 0-.58-.91z"/><path data-name="Path 43" d="M49.5 11.742a12 12 0 1 0 12 12 1 1 0 0 0-2 0 10 10 0 1 1-10-10 1 1 0 0 0 0-2z"/><path data-name="Path 44" d="M47.21 22.032a1 1 0 0 0-1.41 1.41l3.71 3.71 11.7-11.7a1 1 0 0 0-1.41-1.41l-10.3 10.29z"/></g></svg>