<svg xmlns="http://www.w3.org/2000/svg" width="99.271" height="76.94" viewBox="0 0 99.271 76.94"><path data-name="Path 30" d="M94.49 9.41h-.92a4.709 4.709 0 0 0-2.579.77V6.62A6.62 6.62 0 0 0 84.371 0H83.04a6.62 6.62 0 0 0-6.62 6.62v15.34h-9.07v-4.38a5.29 5.29 0 0 0-5.28-5.28 5.23 5.23 0 0 0-3.37 1.25 5.28 5.28 0 0 0-10.41 1.16 5.23 5.23 0 0 0-8.48.93 5.26 5.26 0 0 0-9.21 3.5v2.83h-7.75V6.62A6.62 6.62 0 0 0 16.23 0h-1.37a6.62 6.62 0 0 0-6.62 6.62v3.61a4.71 4.71 0 0 0-2.57-.82h-.92A4.75 4.75 0 0 0 0 14.21v30.2a4.75 4.75 0 0 0 4.75 4.75h.92a4.71 4.71 0 0 0 2.58-.75v3.61a6.62 6.62 0 0 0 6.62 6.62h1.38a6.62 6.62 0 0 0 6.62-6.62v-16h5.8v5.14l6.19 7.35v28.43h2.06v-29.2l-6.21-7.33v-4.4h21.78v-.31a4.67 4.67 0 0 0 .55.06h7.05v-2.07h-7.04a2.71 2.71 0 0 1 0-5.41h11.44a3.48 3.48 0 0 1 3.48 3.48v8.76l-6.31 7.22v5.16h2.06v-4.39l6.31-7.22v-5.54h6.4v16.24a6.62 6.62 0 0 0 6.62 6.62h1.38a6.62 6.62 0 0 0 6.62-6.62v-3.58a4.71 4.71 0 0 0 2.58.77h.86a4.75 4.75 0 0 0 4.78-4.77v-30.2a4.75 4.75 0 0 0-4.78-4.8zM5.67 47.09h-.92a2.69 2.69 0 0 1-2.69-2.68v-30.2a2.69 2.69 0 0 1 2.69-2.69h.92a2.68 2.68 0 0 1 2.58 2v31.59a2.68 2.68 0 0 1-2.58 1.98zm15.12 4.9a4.56 4.56 0 0 1-4.55 4.55h-1.38a4.56 4.56 0 0 1-4.55-4.55v-6.58a4.74 4.74 0 0 0 .11-1v-30.2a4.74 4.74 0 0 0-.11-1v-6.6a4.56 4.56 0 0 1 4.55-4.55h1.38a4.56 4.56 0 0 1 4.55 4.55zm41.28-37.63a3.23 3.23 0 0 1 3.22 3.22v4.77a3.22 3.22 0 1 1-6.44 0v-4.77a3.23 3.23 0 0 1 3.22-3.22zm-4.25 11.05a5.3 5.3 0 0 0 .68.76h-1.36a5.3 5.3 0 0 0 .68-.76zm-7.48-10.67a3.22 3.22 0 1 1 6.44 0v7.6a3.22 3.22 0 0 1-6.44 0zm-9.19 3.48a3.22 3.22 0 1 1 6.44 0v4.77a3.22 3.22 0 1 1-6.44 0zm-8.5.9a3.22 3.22 0 1 1 6.44 0v4.77a3.22 3.22 0 1 1-6.44 0zm15.63 11.86a4.72 4.72 0 0 0 1.06 3H22.85v-9.96h7.75a5.26 5.26 0 0 0 9.89 2.47 5.24 5.24 0 0 0 8.7-1.26 5.31 5.31 0 0 0 1.63 1.59 4.75 4.75 0 0 0-2.54 4.16zm21.74 2.71v-1.94a5.55 5.55 0 0 0-4.53-5.44 5.26 5.26 0 0 0 1.53-2.29h9.37v9.67zm14.39 22.85h-1.37a4.56 4.56 0 0 1-4.55-4.55V6.62a4.56 4.56 0 0 1 4.55-4.55h1.38a4.56 4.56 0 0 1 4.55 4.55v6.6a4.74 4.74 0 0 0-.11 1v30.19a4.74 4.74 0 0 0 .11 1v6.6a4.56 4.56 0 0 1-4.56 4.53zm12.8-12.13a2.69 2.69 0 0 1-2.72 2.68h-.92a2.68 2.68 0 0 1-2.58-2V13.5a2.68 2.68 0 0 1 2.58-2h.92a2.69 2.69 0 0 1 2.69 2.69z"/><path data-name="Rectangle 5" d="M61.64 57.01h2.06v19.93h-2.06z"/></svg>