<svg xmlns="http://www.w3.org/2000/svg" width="96" height="96" viewBox="0 0 96 96"><path data-name="Path 45" d="M48 0a48 48 0 1 0 48 48A48 48 0 0 0 48 0zm0 95a47 47 0 1 1 47-47 47 47 0 0 1-47 47z" fill="#e94400"/><path data-name="Path 46" d="M49.64 52.78h9.84v-7.32h-9.84zm1-6.31h7.84v5.31h-7.84z"/><path data-name="Path 47" d="M36.39 53.41h9.84v-7.32h-9.84zm1-6.31h7.84v5.31h-7.84z"/><path data-name="Path 48" d="M75 73.37V42.81a3 3 0 0 0-3-3h-8.1v-4.58a3 3 0 0 0-3-3h-3.34a9.33 9.33 0 0 0-18.63 0h-3.3a3 3 0 0 0-3 3v4.55h-7.34a3 3 0 0 0-3 3V73.7a1 1 0 0 0 .71 1.67h52a1 1 0 0 0 0-2zm-42.4-3.92h-4.15a.76.76 0 0 1-.76-.76v-2.53a.76.76 0 0 1 .76-.76h4.15zm0-10.1h-4.15a.76.76 0 0 1-.76-.76v-2.53a.76.76 0 0 1 .76-.76h4.15zm0-10.1h-4.15a.76.76 0 0 1-.76-.76V46a.76.76 0 0 1 .76-.76h4.15zm0-5h-4.15A1.76 1.76 0 0 0 26.69 46v2.52a1.77 1.77 0 0 0 1.76 1.76h4.15v4h-4.15a1.77 1.77 0 0 0-1.76 1.76v2.53a1.76 1.76 0 0 0 1.76 1.76h4.15v4.07h-4.15a1.76 1.76 0 0 0-1.76 1.76v2.53a1.77 1.77 0 0 0 1.76 1.76h4.15v2.92h-9.33V42.81a2 2 0 0 1 2-2h7.33zm15.65-19.88a8.34 8.34 0 1 1-8.34 8.34 8.34 8.34 0 0 1 8.34-8.34zm-.5 49h-6.58V59.72h6.58zm-8.6-14.65a.5.5 0 0 1-.5-.5v-.53a.5.5 0 0 1 .5-.5h18.2a.5.5 0 0 1 .5.5v.53a.5.5 0 0 1-.5.5zm16.18 14.65h-6.58V59.72h6.58zm7.58 0h-6.58V59.72h1a1.5 1.5 0 0 0 1.5-1.5v-.53a1.5 1.5 0 0 0-1.5-1.5H39.15a1.5 1.5 0 0 0-1.5 1.5v.53a1.5 1.5 0 0 0 1.5 1.5h1v13.65H33.6V35.23a2 2 0 0 1 2-2h3.31a9.33 9.33 0 0 0 18.63 0h3.31a2 2 0 0 1 2 2zm1-28.17h4.92a.76.76 0 0 1 .76.76v2.52a.76.76 0 0 1-.76.76H63.9zm0 10.1h4.92a.76.76 0 0 1 .76.76v2.53a.76.76 0 0 1-.76.76H63.9zm0 10.1h4.92a.76.76 0 0 1 .76.76v2.53a.76.76 0 0 1-.76.76H63.9zm10.1 8H63.9v-2.95h4.92a1.77 1.77 0 0 0 1.76-1.76v-2.53a1.76 1.76 0 0 0-1.76-1.76H63.9v-4.05h4.92a1.76 1.76 0 0 0 1.76-1.76v-2.53a1.77 1.77 0 0 0-1.76-1.76H63.9v-4h4.92a1.77 1.77 0 0 0 1.76-1.76V46a1.76 1.76 0 0 0-1.76-1.76H63.9v-3.46H72a2 2 0 0 1 2 2z"/><path data-name="Rectangle 7" d="M50.78 65.53h2.52v1.26h-2.52z"/><path data-name="Rectangle 8" d="M43.2 65.53h2.52v1.26H43.2z"/><path data-name="Path 49" d="M46.49 39.52H50V35.1h4.42v-3.52H50v-4.42h-3.51v4.42h-4.42v3.52h4.42zm-3.42-5.42v-1.52h4.42v-4.42H49v4.42h4.42v1.52H49v4.42h-1.51V34.1z"/></svg>