<svg xmlns="http://www.w3.org/2000/svg" width="47.247" height="47.253" viewBox="0 0 47.247 47.253"><g transform="translate(-1.369 -1.368)"><path data-name="Path 50" d="M41.71 8.29a23.632 23.632 0 1 0-20.6 40.01 23.17 23.17 0 0 0 7.69 0 23.62 23.62 0 0 0 12.91-40zm-13.2 38.3a21 21 0 0 1-3.51.29 21.28 21.28 0 0 1-3.6-.31 21.87 21.87 0 1 1 7.11 0z"/><path data-name="Path 51" d="M32 9H18a9 9 0 0 0-9 9v14a9 9 0 0 0 9 9h14a9 9 0 0 0 9-9V18a9 9 0 0 0-9-9zm6.07 23A6.08 6.08 0 0 1 32 38.07H18A6.08 6.08 0 0 1 11.93 32V18A6.08 6.08 0 0 1 18 11.93h14A6.08 6.08 0 0 1 38.07 18z"/><circle data-name="Ellipse 3" cx="1.95" cy="1.95" r="1.95" transform="translate(31.78 14.37)"/><path data-name="Path 52" d="M25 16.83a8.27 8.27 0 1 0 8.37 8.27A8.27 8.27 0 0 0 25 16.83zm0 13.65a5.37 5.37 0 1 1 5.47-5.37A5.43 5.43 0 0 1 25 30.47z"/></g></svg>