<svg xmlns="http://www.w3.org/2000/svg" width="97.46" height="72.65" viewBox="0 0 97.46 72.65"><path data-name="Path 53" d="M14.64 52.99H5.55a1 1 0 0 0 0 2h9.08a1 1 0 0 0 0-2z"/><path data-name="Path 54" d="M97.46 65.36L72.11 3.8l-16.6 6.85V0H36.29v14.13H19.18V6.05H0v66.6h55.5V13.84l24.23 58.81zM2.02 19.65h15.14v7.6H2.02zm15.14-11.6v10.6H2.02V8.07zM2.02 70.65v-42.4h15.14v42.4zm36.33-57h15.14v7H38.35zM53.49 2.02v9.63H38.35v-9.6zm-18.2 68.63h-15.1V16.14h15.1zm3 0v-48h15.2v48zm42.47-.62l-16.07-39.2 14-5.77 16.16 39.2zM64.29 29.9l-2.88-7 14-5.76 2.89 7zm6.69-23.5l4 9.8-14 5.76-4-9.81z"/><path data-name="Path 55" d="M77.38 52.36a1 1 0 1 0 .76 1.85l8.4-3.46a1 1 0 0 0-.76-1.85z"/><path data-name="Path 56" d="M23.22 54.48h9.07a1 1 0 0 0 0-2h-9.07a1 1 0 0 0 0 2z"/><path data-name="Path 57" d="M23.22 62.56h9.07a1 1 0 0 0 0-2h-9.07a1 1 0 0 0 0 2z"/><path data-name="Path 58" d="M49.45 51.47h-9.08a1 1 0 0 0 0 2h9.08a1 1 0 0 0 0-2z"/><path data-name="Path 59" d="M49.45 59.55h-9.08a1 1 0 0 0 0 2h9.08a1 1 0 0 0 0-2z"/><path data-name="Path 60" d="M27 43.38h2.52a3.78 3.78 0 0 0 3.77-3.73V24.97a3.78 3.78 0 0 0-3.77-3.78H27a3.78 3.78 0 0 0-3.78 3.78v14.68A3.78 3.78 0 0 0 27 43.38zm-1.78-18.41A1.78 1.78 0 0 1 27 23.19h2.52a1.78 1.78 0 0 1 1.77 1.78v14.68a1.78 1.78 0 0 1-1.77 1.77H27a1.78 1.78 0 0 1-1.78-1.77z"/><path data-name="Path 61" d="M45.42 41.87a4.54 4.54 0 1 0-4.54-4.54 4.54 4.54 0 0 0 4.54 4.54zm0-8.07a3.54 3.54 0 1 1-3.54 3.54 3.54 3.54 0 0 1 3.54-3.54z"/></svg>