<svg xmlns="http://www.w3.org/2000/svg" width="149.79" height="142.76" viewBox="0 0 149.79 142.76"><defs><clipPath id="a"><path data-name="Rectangle 9" transform="translate(-1.65 8.1)" fill="none" d="M0 0h149.79v39.26H0z"/></clipPath></defs><g transform="translate(1.65 -3.62)"><circle data-name="Ellipse 4" cx="71.38" cy="71.38" r="71.38" transform="translate(3.62 3.62)" fill="#fff" opacity=".85"/><path data-name="Path 62" d="M17.25 55.91l1.56 4.79h5.04l-4.08 2.96 1.56 4.79-4.08-2.95-4.07 2.95 1.55-4.79-4.07-2.96h5.04z" fill="#2b2b7f"/><path data-name="Path 63" d="M132.95 55.91l1.55 4.79h5.04l-4.08 2.96 1.56 4.79-4.07-2.95-4.08 2.95 1.56-4.79-4.08-2.96h5.04z" fill="#2b2b7f"/><path data-name="Path 64" d="M117.44 78.72l.83 2.55h2.67l-2.16 1.57.82 2.54-2.16-1.57-2.16 1.57.82-2.54-2.16-1.57h2.67z" fill="#2b2b7f"/><path data-name="Path 65" d="M33.23 78.74l.82 2.55h2.68l-2.17 1.57.83 2.54-2.16-1.57-2.17 1.57.83-2.54-2.16-1.57h2.67z" fill="#2b2b7f"/><path data-name="Path 66" d="M35.76 67.73l1.43.14-.54 5.46-9.31-.92.17-1.73 7.88.78z" fill="#2b2b7f"/><path data-name="Path 67" d="M37.89 65.22l-.4 1.7-9.11-2.12.4-1.7z" fill="#2b2b7f"/><path data-name="Path 68" d="M31.48 59l2.59 1 1.26-3.28 1.3.5-1.26 3.28 3.56 1.37-.63 1.63-8.74-3.35 2.11-5.51 1.29.5z" fill="#2b2b7f"/><path data-name="Path 69" d="M35 51.42l2.21 1.35L39 50l1.14.7-1.71 2.79 2.26 1.38 2.17-3.54L44 52l-3.08 5-8-4.89 3.08-5 1.18.72z" fill="#2b2b7f"/><path data-name="Path 70" d="M42.35 42.33a.59.59 0 0 1 0 .25.36.36 0 0 1-.1.2.56.56 0 0 1-.27.15l-.42.13a3.16 3.16 0 0 0-.51.24 2.16 2.16 0 0 0-.54.45 2.08 2.08 0 0 0-.36.53 1.32 1.32 0 0 0-.12.5 1 1 0 0 0 .09.45 1.21 1.21 0 0 0 .29.38.83.83 0 0 0 .53.23 1.54 1.54 0 0 0 .61-.11 4.46 4.46 0 0 0 .67-.33L43 45a7.52 7.52 0 0 1 .77-.38 2.77 2.77 0 0 1 .81-.21 2.12 2.12 0 0 1 .84.09 2.39 2.39 0 0 1 .86.52A3.21 3.21 0 0 1 47 46a2.74 2.74 0 0 1 .3 1.12 3 3 0 0 1-.2 1.19 3.77 3.77 0 0 1-.74 1.19 4.42 4.42 0 0 1-.65.6 4.62 4.62 0 0 1-.74.45 4.42 4.42 0 0 1-.79.3 3.58 3.58 0 0 1-.79.13l-.26-.98a.55.55 0 0 1 0-.23.44.44 0 0 1 .1-.21.62.62 0 0 1 .33-.17l.52-.14a3.5 3.5 0 0 0 .62-.25 2.31 2.31 0 0 0 .65-.53 1.7 1.7 0 0 0 .5-1.09 1.26 1.26 0 0 0-.48-1 .94.94 0 0 0-.57-.26 1.49 1.49 0 0 0-.62.1 3.62 3.62 0 0 0-.66.34l-.7.43a6.71 6.71 0 0 1-.76.38 2.57 2.57 0 0 1-.81.2 2.16 2.16 0 0 1-.87-.12 2.77 2.77 0 0 1-.93-.58 2.56 2.56 0 0 1-.61-.82 2.59 2.59 0 0 1-.25-1 2.92 2.92 0 0 1 .19-1.05 3.52 3.52 0 0 1 .7-1.13 4.37 4.37 0 0 1 1.21-1 3.44 3.44 0 0 1 1.31-.41z" fill="#2b2b7f"/><path data-name="Path 71" d="M49.59 35.94l-2.23 1.73 4.87 6.26L50.86 45 46 38.75l-2.23 1.73-.88-1.13 5.83-4.54z" fill="#2b2b7f"/><path data-name="Path 72" d="M57.16 36.78L58.78 40l-1.55.77-1.61-3.25L50 33.94l1.37-.68a.54.54 0 0 1 .37-.06.93.93 0 0 1 .32.15l2.92 2 .47.35.4.35v-1.11l.13-3.56a.89.89 0 0 1 .07-.33.54.54 0 0 1 .27-.27l1.38-.69z" fill="#2b2b7f"/><path data-name="Path 73" d="M67.32 35.6l.39 1.4-5.28 1.48-2.53-9 1.67-.48 2.14 7.63z" fill="#2b2b7f"/><path data-name="Path 74" d="M69.52 28.76l.26 2.58L73 31l.13 1.33-3.26.33.26 2.63 4.13-.41.14 1.38-5.87.59-.93-9.31 5.92-.54.14 1.38z" fill="#2b2b7f"/><path data-name="Path 75" d="M82.5 35.69a2.29 2.29 0 0 0 .92 0 1.85 1.85 0 0 0 .75-.34 2.09 2.09 0 0 0 .55-.65 3 3 0 0 0 .32-.93l1-5.51 1.71.32-1 5.51a4.31 4.31 0 0 1-.55 1.47 3.43 3.43 0 0 1-2.33 1.62 4.71 4.71 0 0 1-3.19-.6 3.43 3.43 0 0 1-1.58-2.36 4.32 4.32 0 0 1 0-1.57l1-5.51 1.71.32-1 5.5a3 3 0 0 0 0 1 2.11 2.11 0 0 0 .28.81 1.87 1.87 0 0 0 .57.59 2.29 2.29 0 0 0 .84.33z" fill="#2b2b7f"/><path data-name="Path 76" d="M93.95 30.91a5.34 5.34 0 0 1 1.41.84 3.13 3.13 0 0 1 .8 1 2.44 2.44 0 0 1 .24 1.13 3.27 3.27 0 0 1-.27 1.19 3.34 3.34 0 0 1-.7 1.06 2.58 2.58 0 0 1-1 .63 3.15 3.15 0 0 1-1.29.14 5.07 5.07 0 0 1-1.56-.42L90.37 36l-1.29 3-1.6-.68 3.68-8.61zm-1.85 4.33a2.64 2.64 0 0 0 .81.22 1.58 1.58 0 0 0 .68-.08 1.39 1.39 0 0 0 .54-.36 2.09 2.09 0 0 0 .39-.61 1.89 1.89 0 0 0 .16-.67 1.35 1.35 0 0 0-.12-.61 1.55 1.55 0 0 0-.41-.53 2.78 2.78 0 0 0-.73-.43l-1.2-.51-1.32 3.07z" fill="#2b2b7f"/><path data-name="Path 77" d="M103.37 42l-2.2 3.08a5 5 0 0 1-1.68-.26 6 6 0 0 1-1.55-.8 5.77 5.77 0 0 1-1.48-1.49 4.65 4.65 0 0 1-.72-1.73 4.33 4.33 0 0 1 .06-1.8 5.06 5.06 0 0 1 .83-1.77A5.28 5.28 0 0 1 98 35.86a4.26 4.26 0 0 1 3.49-.58 5.55 5.55 0 0 1 1.85.89 6 6 0 0 1 .81.69 5.44 5.44 0 0 1 .6.74 4 4 0 0 1 .41.76 4.651 4.651 0 0 1 .23.78l-.86.35a.48.48 0 0 1-.38 0 .54.54 0 0 1-.28-.31l-.21-.45a2.73 2.73 0 0 0-.26-.45 3.839 3.839 0 0 0-.39-.46 4.359 4.359 0 0 0-.58-.48 3.24 3.24 0 0 0-1.16-.54 2.66 2.66 0 0 0-1.17 0 3 3 0 0 0-1.1.5 4.1 4.1 0 0 0-1 1 4.16 4.16 0 0 0-.64 1.3 3 3 0 0 0-.09 1.25 2.76 2.76 0 0 0 .43 1.13 3.91 3.91 0 0 0 1.75 1.4 4.539 4.539 0 0 0 .82.22l1-1.38-1-.68a.35.35 0 0 1-.16-.23.31.31 0 0 1 .06-.24l.57-.8z" fill="#2b2b7f"/><path data-name="Path 78" d="M106.41 52.17L105.35 51a.69.69 0 0 1-.17-.71l.9-3.47a.69.69 0 0 0 0-.34.84.84 0 0 0-.21-.34l-.5-.55-2.7 2.41-1.17-1.29 6.94-6.28 1.92 2.12a5.93 5.93 0 0 1 1 1.34 3.12 3.12 0 0 1 .34 1.2 2.17 2.17 0 0 1-.2 1 3 3 0 0 1-1.5 1.47 2.6 2.6 0 0 1-.83.21 2.7 2.7 0 0 1-.88-.08 3.23 3.23 0 0 1-.89-.38 1.69 1.69 0 0 1 0 .38 1.61 1.61 0 0 1-.06.4zm.63-6.61a2.7 2.7 0 0 0 .67.55 1.65 1.65 0 0 0 .66.22 1.36 1.36 0 0 0 .62-.08 1.77 1.77 0 0 0 .56-.35 1.33 1.33 0 0 0 .5-1.08 2.24 2.24 0 0 0-.68-1.32l-.75-.83-2.3 2.08z" fill="#2b2b7f"/><path data-name="Path 79" d="M110.69 59.64l-.69-1.17a.57.57 0 0 1-.09-.38.69.69 0 0 1 .14-.33l1.31-1.56-1.93-3.36-2 .35a.62.62 0 0 1-.34 0 .56.56 0 0 1-.29-.26l-.68-1.18 9.95-1.47.88 1.54zm1.53-4.43l2.13-2.54q.14-.18.34-.4l.44-.46-.62.16-.52.1-3.25.56z" fill="#2b2b7f"/><path data-name="Path 80" d="M117.66 66.77a5.06 5.06 0 0 1-1.91.21 4.24 4.24 0 0 1-3-1.66 5.27 5.27 0 0 1-.88-1.76l-1-3.42 9-2.66 1 3.42a5.21 5.21 0 0 1 .22 2 4.36 4.36 0 0 1-.5 1.71 4.3 4.3 0 0 1-1.14 1.35 5.07 5.07 0 0 1-1.79.81zm-.51-1.71a4.36 4.36 0 0 0 1.27-.59 2.87 2.87 0 0 0 .83-.86 2.58 2.58 0 0 0 .36-1.08 3.2 3.2 0 0 0-.13-1.25l-.48-1.74-6.32 1.88.52 1.74a3.2 3.2 0 0 0 .57 1.12 2.57 2.57 0 0 0 .89.71 2.87 2.87 0 0 0 1.16.27 4.35 4.35 0 0 0 1.34-.21z" fill="#2b2b7f"/><path data-name="Path 81" d="M121.28 70.34l-2.59.2.25 3.27-1.34.1-.25-3.27-2.64.2L115 75l-1.39.11-.45-5.89 9.33-.71.45 5.89-1.38.11z" fill="#2b2b7f"/><path data-name="Path 82" d="M39.38 98l-3.94 2a5.77 5.77 0 0 1-1.59-1.18 6.94 6.94 0 0 1-1.15-1.67 6.69 6.69 0 0 1-.7-2.42 5.4 5.4 0 0 1 .21-2.17 5.06 5.06 0 0 1 1-1.84 5.92 5.92 0 0 1 1.82-1.37 6.16 6.16 0 0 1 2.2-.65 5 5 0 0 1 3.93 1.3 6.44 6.44 0 0 1 1.42 1.92 6.86 6.86 0 0 1 .42 1.16 6.24 6.24 0 0 1 .22 1.09 4.69 4.69 0 0 1 0 1 5.37 5.37 0 0 1-.19.93L42 96a.56.56 0 0 1-.4-.2.63.63 0 0 1-.11-.47v-.57a3.16 3.16 0 0 0 0-.61 4.55 4.55 0 0 0-.15-.69 5.13 5.13 0 0 0-.33-.82 3.79 3.79 0 0 0-.9-1.18 3.08 3.08 0 0 0-1.19-.65 3.48 3.48 0 0 0-1.4-.09 4.74 4.74 0 0 0-1.52.48 4.85 4.85 0 0 0-1.37 1 3.51 3.51 0 0 0-.78 1.23 3.22 3.22 0 0 0-.17 1.4 4.55 4.55 0 0 0 1 2.4 5.28 5.28 0 0 0 .72.67l1.8-.9-.61-1.23a.41.41 0 0 1 0-.32.37.37 0 0 1 .19-.22l1-.51z" fill="#2b2b7f"/><path data-name="Path 83" d="M40.83 105.67a2.67 2.67 0 0 0 .85.65 2.14 2.14 0 0 0 .93.21 2.42 2.42 0 0 0 1-.21 3.55 3.55 0 0 0 1-.63l4.85-4.37 1.36 1.51-4.85 4.37a5.05 5.05 0 0 1-1.54 1A4 4 0 0 1 41 108a5.48 5.48 0 0 1-2.53-2.8 4 4 0 0 1 .2-3.3 5 5 0 0 1 1.13-1.44l4.85-4.37L46 97.61 41.2 102a3.55 3.55 0 0 0-.73.88 2.44 2.44 0 0 0-.31.94 2.17 2.17 0 0 0 .11 1 2.66 2.66 0 0 0 .56.85z" fill="#2b2b7f"/><path data-name="Path 84" d="M53.32 117.65l-1.32-.86a.67.67 0 0 1-.29-.35.83.83 0 0 1 0-.41l.54-2.31-3.77-2.48-1.9 1.41a.72.72 0 0 1-.37.14.66.66 0 0 1-.44-.12l-1.32-.87 9.55-6.75 1.72 1.14zm-.73-5.41l.89-3.76a2.221 2.221 0 0 1 .15-.59c.07-.22.13-.46.22-.71l-.57.49-.49.38-3.09 2.29z" fill="#2b2b7f"/><path data-name="Path 85" d="M64 121.51l-1.73-.6a.8.8 0 0 1-.58-.63l-1-4a.82.82 0 0 0-.17-.36 1 1 0 0 0-.4-.23l-.82-.29-1.4 4-1.92-.67 3.58-10.3 3.14 1.09a6.89 6.89 0 0 1 1.72.84 3.65 3.65 0 0 1 1 1 2.52 2.52 0 0 1 .38 1.18 3.44 3.44 0 0 1-.68 2.21 3 3 0 0 1-.73.69 3.15 3.15 0 0 1-.94.41 3.77 3.77 0 0 1-1.12.11 2 2 0 0 1 .25.37 1.88 1.88 0 0 1 .16.44zm-3-7.11a3.13 3.13 0 0 0 1 .19 1.94 1.94 0 0 0 .79-.14 1.59 1.59 0 0 0 .58-.43 2.09 2.09 0 0 0 .38-.67 1.55 1.55 0 0 0-.1-1.38 2.61 2.61 0 0 0-1.43-1l-1.22-.43-1.27 3.46z" fill="#2b2b7f"/><path data-name="Path 86" d="M76.11 122.84l-1.56-.14a.66.66 0 0 1-.42-.17.81.81 0 0 1-.22-.35l-.61-2.29-4.5-.4-1 2.14a.73.73 0 0 1-.26.29.66.66 0 0 1-.44.1l-1.58-.14 5.25-10.47 2.06.18zm-3.2-4.42l-1-3.73a5.79 5.79 0 0 1-.15-.59l-.15-.73q-.13.37-.27.7c-.09.22-.17.4-.25.56l-1.64 3.48z" fill="#2b2b7f"/><path data-name="Path 87" d="M86.17 110.27L88.09 121l-1 .18a.91.91 0 0 1-.41 0 .93.93 0 0 1-.35-.21l-6.89-6.15q.135.48.21.9l1.18 6.59-1.76.32-1.92-10.73 1-.19h.39a.54.54 0 0 1 .15.07l.18.14 6.91 6.18-.13-.5a2.074 2.074 0 0 0-.1-.46l-1.17-6.52z" fill="#2b2b7f"/><path data-name="Path 88" d="M95.07 108l-3 1.37 3.85 8.4-1.84.85-3.85-8.4-3 1.37-.69-1.51 7.82-3.58z" fill="#2b2b7f"/><path data-name="Path 89" d="M97.38 106.19l1.82 2.41 3-2.3.94 1.25-3 2.3 1.86 2.46 3.86-2.92 1 1.29-5.49 4.15-6.57-8.7 5.49-4.15 1 1.29z" fill="#2b2b7f"/><path data-name="Path 90" d="M103.44 100.83l2.28 2 2.5-2.88 1.18 1-2.5 2.88 2.33 2 3.18-3.65 1.22 1.06-4.51 5.19-8.23-7.15 4.51-5.19 1.22 1.06z" fill="#2b2b7f"/><path data-name="Path 91" d="M115.16 89.36a5.89 5.89 0 0 1 1.78 1.35 4.94 4.94 0 0 1 1.24 3.84 6.12 6.12 0 0 1-.67 2.2l-1.88 3.7-9.72-4.94 1.88-3.7a6.09 6.09 0 0 1 1.4-1.81 5.09 5.09 0 0 1 1.79-1 5 5 0 0 1 2-.22 5.9 5.9 0 0 1 2.18.58zm-.94 1.86a5.07 5.07 0 0 0-1.54-.52 3.35 3.35 0 0 0-1.39.07 3 3 0 0 0-1.17.63 3.72 3.72 0 0 0-.89 1.16l-1 1.89 6.84 3.48 1-1.89a3.71 3.71 0 0 0 .42-1.4 3 3 0 0 0-.18-1.31 3.33 3.33 0 0 0-.77-1.16 5.06 5.06 0 0 0-1.32-.95z" fill="#2b2b7f"/><path data-name="Path 92" d="M75.1 135.29a60.55 60.55 0 0 1-60.48-60.48h5.26a55.215 55.215 0 0 0 110.43 0h5.26a60.55 60.55 0 0 1-60.47 60.48z" fill="#2b2b7f"/><circle data-name="Ellipse 5" cx="23.25" cy="23.25" r="23.25" transform="rotate(-45 111.274 -13.608)" fill="#2e327b"/><path data-name="Path 93" d="M98.45 74a23.36 23.36 0 1 1-22.59-22.54A23.36 23.36 0 0 1 98.45 74z" fill="#2b2b7f"/><path data-name="Path 94" d="M75.71 87.47a3 3 0 0 1-4.36.49L57.79 76.18a3.7 3.7 0 1 1 4.85-5.58l8.5 7.4a1.76 1.76 0 0 0 2.58-.29L85 62.35a3.711 3.711 0 0 1 6 4.37z" fill="#f2f2f2"/><g data-name="Group 1" clip-path="url(#a)"><path data-name="Path 95" d="M135.58 74.76h-5.26a55.215 55.215 0 0 0-110.43 0h-5.27a60.5 60.5 0 1 1 121 0z" fill="#2b2b7f"/></g></g></svg>