<svg xmlns="http://www.w3.org/2000/svg" width="96" height="96" viewBox="0 0 96 96"><path data-name="Path 221" d="M48 96a48 48 0 1 1 48-48 48 48 0 0 1-48 48zm0-95a47 47 0 1 0 47 47A47 47 0 0 0 48 1z" fill="#e94400"/><path data-name="Path 222" d="M48 30.75a6.75 6.75 0 1 0 6.75 6.75A6.75 6.75 0 0 0 48 30.75zm0 11.5a4.75 4.75 0 1 1 4.75-4.75A4.75 4.75 0 0 1 48 42.25z"/><path data-name="Path 223" d="M64.74 73.65H49.26L63.35 49.5a18.45 18.45 0 0 0 .33-18A17.52 17.52 0 0 0 49.35 22a20.39 20.39 0 0 0-2.7 0 17.52 17.52 0 0 0-14.33 9.4 18.45 18.45 0 0 0 .33 18l14.09 24.25H31.3a1 1 0 0 0 0 2h16.6l.1.17.1-.17h16.64a1 1 0 0 0 0-2zM48 71.85L34.38 48.49a16.46 16.46 0 0 1-.29-16.1A15.53 15.53 0 0 1 46.78 24a18.35 18.35 0 0 1 2.43 0 15.53 15.53 0 0 1 12.7 8.34 16.46 16.46 0 0 1-.29 16.1z"/></svg>