<svg xmlns="http://www.w3.org/2000/svg" width="95.628" height="97.64" viewBox="0 0 95.628 97.64"><g data-name="Locker Facility"><path data-name="Path 96" d="M82.5 54.55V10.5a10 10 0 0 0-10-10h-22a10 10 0 0 0-9.15 6A10 10 0 0 0 32 0H10A10 10 0 0 0 0 10v60a10 10 0 0 0 10 10h22a10 10 0 0 0 9.15-6 10 10 0 0 0 9.35 6.5h11.59L54.55 88l-1.2 9.64 8.65-1.2 14.5-14.89a14 14 0 1 0 6-27zM40 70a8 8 0 0 1-8 8H10a8 8 0 0 1-8-8V10a8 8 0 0 1 8-8h22a8 8 0 0 1 8 8zm24 8.5H50.5a8 8 0 0 1-8-8v-60a8 8 0 0 1 8-8h22a8 8 0 0 1 8 8v44.05A14 14 0 0 0 68.61 74l-4.54 4.54zm-3 16.06l-5.37.77.8-6.36 13.16-13.15a14.09 14.09 0 0 0 5 4.82zM81.5 80.5a12 12 0 1 1 12-12 12 12 0 0 1-12 12z"/><path data-name="Path 97" d="M83.5 61.5a5 5 0 1 0 5 5 5 5 0 0 0-5-5zm0 8a3 3 0 1 1 3-3 3 3 0 0 1-3 3z"/><path data-name="Path 98" d="M54 16.5h16a1 1 0 0 0 0-2H54a1 1 0 0 0 0 2z"/><path data-name="Path 99" d="M71 24.5a1 1 0 0 0-1-1H54a1 1 0 0 0 0 2h16a1 1 0 0 0 1-1z"/><path data-name="Path 100" d="M71 48.5a1.5 1.5 0 0 0 3 0v-12a1.5 1.5 0 0 0-3 0z"/><path data-name="Path 101" d="M14 16.5h16a1 1 0 0 0 0-2H14a1 1 0 0 0 0 2z"/><path data-name="Path 102" d="M30 23.5H14a1 1 0 0 0 0 2h16a1 1 0 0 0 0-2z"/><path data-name="Path 103" d="M32.5 35a1.5 1.5 0 0 0-1.5 1.5v12a1.5 1.5 0 0 0 3 0v-12a1.5 1.5 0 0 0-1.5-1.5z"/></g></svg>