<svg xmlns="http://www.w3.org/2000/svg" width="101" height="98.522" viewBox="0 0 101 98.522"><g data-name="Party Hall"><path data-name="Path 121" d="M100 89.522h-6.5v-4.23a8.19 8.19 0 0 0 2.32-.32 1 1 0 0 0 .68-1.06l-3.26-28.92h.38a1 1 0 0 0 1-1v-17H96a1 1 0 0 0 1-1v-7a.931.931 0 0 0 0-.11.88.88 0 0 0-.12-.37.833.833 0 0 0-.25-.29.93.93 0 0 0-.08-.07l-45-28a1 1 0 0 0-1.06 0l-45 28a.931.931 0 0 0-.08.07 1 1 0 0 0-.15.14 1.09 1.09 0 0 0-.18.33 1 1 0 0 0 0 .2.93.93 0 0 0 0 .11v7a1 1 0 0 0 1 1h1.8v17a1 1 0 0 0 1 1h.38l-3.25 28.91a1 1 0 0 0 .68 1.06 8.19 8.19 0 0 0 2.32.32v4.23H1a1 1 0 0 0-1 1v7a1 1 0 0 0 1 1h99a1 1 0 0 0 1-1v-7a1 1 0 0 0-1-1zm-14 0v-6.81a13.13 13.13 0 0 0 5.5 2.41v4.4zm-64.5-38.3l3.46 23.73a3.65 3.65 0 0 1-1.67 2.11 4.29 4.29 0 0 1-3.44-.11l-1.6-24.2a30.82 30.82 0 0 0 3.25-1.53zm-1.74 28.45a1 1 0 0 0 .22-.6 7.3 7.3 0 0 0 1.94.29 5 5 0 0 0 2.29-.52 5.75 5.75 0 0 0 2.77-3.6 1 1 0 0 0 0-.37l-3.6-24.76a23.11 23.11 0 0 0 9.69-12.52 15.31 15.31 0 0 0 8.28 2.24 4.41 4.41 0 0 0 3.21.83l1.79-.23.76 1.63a4.4 4.4 0 0 0 4 2.59h.09a4.41 4.41 0 0 0 4-2.74l.7-1.66 1.79.16a4.41 4.41 0 0 0 2.67-.6c3.76-.13 6.7-1.07 8.79-2.8a23.13 23.13 0 0 0 9.86 13.09l-3.51 24.78a1 1 0 0 0 0 .37 5.75 5.75 0 0 0 2.77 3.6 5 5 0 0 0 2.29.52 7.3 7.3 0 0 0 1.94-.3 1 1 0 0 0 .22.6 20.16 20.16 0 0 0 2.26 2.26v7.59h-67v-8a20.579 20.579 0 0 0 1.78-1.85zm35.2-54.22a2 2 0 0 0 .89.12l1.79-.23a2.46 2.46 0 0 1 2.32 3.86l-1 1.47a2 2 0 0 0 0 2.37l1.15 1.48a2.4 2.4 0 0 1 .2 2.68 2.49 2.49 0 0 1-.6.7 1 1 0 0 0-.68.39 2.46 2.46 0 0 1-1.09.17l-1.79-.16a2 2 0 0 0-2 1.22l-.7 1.66a2.46 2.46 0 0 1-4.5.08l-.76-1.63a2 2 0 0 0-1.81-1.16h-.26l-1.78.23a2.46 2.46 0 0 1-2.32-3.86l1-1.47a2 2 0 0 0 0-2.38l-1.13-1.47a2.46 2.46 0 0 1 2.18-3.94l1.79.16a2 2 0 0 0 2-1.22l.7-1.66a2.4 2.4 0 0 1 2.22-1.51 2.37 2.37 0 0 1 2.28 1.43l.76 1.64a2 2 0 0 0 1.13 1.03zm15.74 4.14a8.36 8.36 0 0 1-1.68 4.83 7.149 7.149 0 0 1-.57.62 1 1 0 0 0-.9.77 11.42 11.42 0 0 1-5.27 1.87 4.39 4.39 0 0 0-.57-4.39l-1.09-1.44.6-.85h.1a11.62 11.62 0 0 0 4.76-2.83c.13-.07 1.62-.88 4.58-.3v.6a.91.91 0 0 0 0 1.14zm-4.87-4.53a7.26 7.26 0 0 1-3.4 3.29 4.46 4.46 0 0 0-5-5l-.71.09c.95-1.75 3.44-4.58 9.49-3.57a7.86 7.86 0 0 1-.38 5.19zm-21.59-1.44a4.46 4.46 0 0 0-4.79 5.21 6.8 6.8 0 0 1-3.08-2.81 9.08 9.08 0 0 1-.55-6.21c6.29-1.83 9.12 2.32 10 3.95zm-8.88 4.47a10.14 10.14 0 0 0 5.47 3.43l.55.73-1 1.47a4.39 4.39 0 0 0-.55 4.06c-3.33-.33-5.77-1.43-7.27-3.3a9.21 9.21 0 0 1-1.65-6.58 7.24 7.24 0 0 1 4.46.19zm47.27 48.85a4.31 4.31 0 0 1-3.43.12 3.65 3.65 0 0 1-1.7-2.11l3.48-23.73a30.82 30.82 0 0 0 3.25 1.52zm11.77 6.29a8.13 8.13 0 0 1-1.25.05.913.913 0 0 0-1.14-.11 12.72 12.72 0 0 1-7.51-4.5l1.66-25.22a35.14 35.14 0 0 0 5 1.25zm-1.77-31.24c-2.35-2.05-6.8-6.47-8.13-11.24a1 1 0 0 0-1.92.55c1.32 4.62 5 8.75 7.64 11.19-5.36-1.15-15.34-4.71-18.84-15.47h21.25zm2.38-17h-24a10.46 10.46 0 0 0 1.64-5H95zM51 2.202l41.5 25.82H72.68a10 10 0 0 0-.18-1.22 1 1 0 0 0-.73-.75 12.08 12.08 0 0 0-4-.37 10.13 10.13 0 0 0 .2-7 1 1 0 0 0-.74-.63c-7.46-1.49-10.77 2-12.12 4.33l-.18-.4a4.45 4.45 0 0 0-8-.18c-1.64-2.41-5.37-6-12.22-3.72a1 1 0 0 0-.63.63 11.83 11.83 0 0 0 0 7 11.83 11.83 0 0 0-4.3.34 1 1 0 0 0-.73.75 10 10 0 0 0-.16 1.22H9.5zM7 30.022h21.86a10.46 10.46 0 0 0 1.64 5H7zm24.16 7a21.32 21.32 0 0 1-9.19 11.71 1 1 0 0 0-.36.23 27.48 27.48 0 0 1-4.5 2.17 1 1 0 0 0-.42.16 31.79 31.79 0 0 1-4.42 1.23c2.61-2.44 6.36-6.58 7.69-11.24a1 1 0 0 0-1.92-.55c-1.37 4.81-5.82 9.2-8.16 11.25v-15zM11.3 54.712a35.141 35.141 0 0 0 5-1.25l1.66 25.22a17.918 17.918 0 0 1-1.58 1.57l-.13.1a11.65 11.65 0 0 1-5.75 2.83.934.934 0 0 0-1.18.11 8.051 8.051 0 0 1-1.23-.06zm-.3 30.41a12.89 12.89 0 0 0 5-2.05v6.45h-5zm88 11.4H2v-5h7.15a1 1 0 0 0 1.69 0h80.81a1 1 0 0 0 1.69 0H99z"/><path data-name="Path 122" d="M51 28.022a4 4 0 1 0 4 4 4 4 0 0 0-4-4zm0 6a2 2 0 1 1 2-2 2 2 0 0 1-2 2z"/><path data-name="Path 123" d="M39.15 71.162l10.52 9.12a.94.94 0 0 0 1 .17.94.94 0 0 0 1-.17l10.52-9.12a9.13 9.13 0 0 0 .81-13 9.91 9.91 0 0 0-11.77-2.23l-.55.27-.55-.27a9.91 9.91 0 0 0-11.77 2.23 9.13 9.13 0 0 0 .81 13zm.68-11.64a7.91 7.91 0 0 1 9.39-1.78l.66.33a1 1 0 0 0 .78 0 1 1 0 0 0 .79 0l.66-.33a7.9 7.9 0 0 1 9.39 1.78 7.12 7.12 0 0 1-.63 10.15l-10.21 8.85-10.16-8.87a7.12 7.12 0 0 1-.67-10.13z"/></g></svg>