<svg xmlns="http://www.w3.org/2000/svg" width="100" height="78.861" viewBox="0 0 100 78.861"><g data-name="Swimming Pool"><path data-name="Path 185" d="M99 49.859a1 1 0 0 0-1 1c0 4.41-3.95 8-8.8 8a8.89 8.89 0 0 1-7.87-4.42 2.18 2.18 0 0 0-1.93-1.16 2.18 2.18 0 0 0-1.93 1.16 9.22 9.22 0 0 1-15.74 0 2.25 2.25 0 0 0-.73-.78v-23.8h38a1 1 0 0 0 0-2H86.47v-11a17 17 0 0 0-33-5.6 17 17 0 0 0-33 5.6v11H1a1 1 0 0 0 0 2h19.53v23.43a2.18 2.18 0 0 0-1.86 1.15 8.89 8.89 0 0 1-7.87 4.42c-4.85 0-8.8-3.59-8.8-8a1 1 0 0 0-2 0c0 5.51 4.84 10 10.8 10a10.89 10.89 0 0 0 9.62-5.45.23.23 0 0 1 .11-.1v.55a1.11 1.11 0 0 0 1.21 1 11 11 0 0 0 8.66 4 10.89 10.89 0 0 0 9.6-5.45.19.19 0 0 1 .36 0 11.21 11.21 0 0 0 19.07.27 1.377 1.377 0 0 0 .81.18 11.21 11.21 0 0 0 19-.4.19.19 0 0 1 .36 0 10.89 10.89 0 0 0 9.6 5.4c6 0 10.8-4.49 10.8-10a1 1 0 0 0-1-1zm-21-22H61v-10.5a8.5 8.5 0 0 1 17 0zm-25.47 2v9H29v-9zm-6.53-2H29v-10.5a8.5 8.5 0 0 1 17 0zm-17 13h23.53v5H29zm-6.47 13.59v-37.59a15 15 0 1 1 29.94 0v11H48v-10.5a10.5 10.5 0 1 0-21 0v40.87a8.5 8.5 0 0 1-4.47-3.78zm19.6 0a2.19 2.19 0 0 0-3.86 0 8.89 8.89 0 0 1-7.87 4.41 9.749 9.749 0 0 1-1.4-.11v-10.89h23.53v10.66a9.67 9.67 0 0 1-2.53.34 8.89 8.89 0 0 1-7.87-4.42zm15.74 0a8.35 8.35 0 0 1-3.34 3.28v-40.87a15 15 0 1 1 29.94 0v11H80v-10.5a10.5 10.5 0 0 0-21 0v36.09a2.21 2.21 0 0 0-1.13.99z"/><path data-name="Path 186" d="M88.42 71.049a1 1 0 0 0-1.36.38 9.54 9.54 0 0 1-16.11 0 2.22 2.22 0 0 0-3.89 0 9.54 9.54 0 0 1-16.11 0 2.22 2.22 0 0 0-3.89 0 9.13 9.13 0 0 1-8.06 4.43 1 1 0 1 0 0 2 11.13 11.13 0 0 0 9.8-5.45c.12-.22.29-.22.41 0a11.53 11.53 0 0 0 19.59 0c.12-.22.29-.22.41 0a11.53 11.53 0 0 0 19.59 0 1 1 0 0 0-.38-1.36z"/><path data-name="Path 187" d="M29.42 72.049a1 1 0 0 0-1.36.38 9.13 9.13 0 0 1-8.06 4.43 9.13 9.13 0 0 1-8.05-4.43 1.003 1.003 0 1 0-1.74 1 11.13 11.13 0 0 0 9.79 5.43 11.13 11.13 0 0 0 9.8-5.45 1 1 0 0 0-.38-1.36z"/></g></svg>