<svg xmlns="http://www.w3.org/2000/svg" width="97.833" height="84.17" viewBox="0 0 97.833 84.17"><path data-name="Path 124" d="M27.171 35h27.33V23.17h-27.33zm2-9.83h23.33V33h-23.33z"/><path data-name="Path 125" d="M65.831 24.67a4.42 4.42 0 1 0 4.42 4.42 4.42 4.42 0 0 0-4.42-4.42zm0 6.83a2.42 2.42 0 1 1 2.42-2.42 2.42 2.42 0 0 1-2.42 2.42z"/><path data-name="Path 126" d="M78.001 33.5a4.42 4.42 0 1 0-4.42-4.42 4.42 4.42 0 0 0 4.42 4.42zm0-6.83a2.42 2.42 0 1 1-2.42 2.42 2.42 2.42 0 0 1 2.42-2.42z"/><path data-name="Path 127" d="M51.001 52.67h-20.5a1 1 0 0 0 0 2h20.5a1 1 0 0 0 0-2z"/><path data-name="Path 128" d="M51.001 58.84h-20.5a1 1 0 0 0 0 2h20.5a1 1 0 0 0 0-2z"/><path data-name="Path 129" d="M51.001 65h-20.5a1 1 0 0 0 0 2h20.5a1 1 0 0 0 0-2z"/><path data-name="Path 130" d="M84.001 64.17a6.17 6.17 0 1 0 6.17 6.13 6.17 6.17 0 0 0-6.17-6.13zm0 10.33a4.17 4.17 0 1 1 2.959-1.232 4.17 4.17 0 0 1-2.959 1.232z"/><path data-name="Path 131" d="M89.831 57.81V18.3h2.83v-5a4.92 4.92 0 0 0-4.91-5h-3.92V4.92A4.92 4.92 0 0 0 78.911 0h-7.66a4.92 4.92 0 0 0-4.92 4.92V8.3H4.921a4.92 4.92 0 0 0-4.92 5v5h2.67v49.12a9.09 9.09 0 0 0 8.83 9.07v2.1a5.59 5.59 0 0 0 5.58 5.58h6.5a5.59 5.59 0 0 0 5.58-5.58V76.5h42.48a13.82 13.82 0 1 0 18.2-18.69zm-21.5-52.89A2.92 2.92 0 0 1 71.251 2h7.67a2.92 2.92 0 0 1 2.92 2.92V8.3h-13.51zM2.001 13.3a2.92 2.92 0 0 1 2.92-3h82.83a2.92 2.92 0 0 1 2.92 3v3H2.001zm25.17 65.29a3.59 3.59 0 0 1-3.58 3.58h-6.5a3.59 3.59 0 0 1-3.58-3.58V76.5h13.66zm1-4.08h-16.42a7.09 7.09 0 0 1-7.08-7.08V45.67h8.33L11.631 48a1 1 0 0 0 .87 1.5h8.83v8.8a1 1 0 0 0 1.86.51l8.07-13.68h39.9a1 1 0 0 0 0-2h-38.71l.41-.7a1 1 0 0 0-.86-1.47h-8.74l.08-9.45a1 1 0 0 0-1.87-.51l-7.33 12.67h-9.47V18.3h83.16v24.87h-6.36a1 1 0 0 0 0 2h6.37v11.89a13.82 13.82 0 0 0-17 17.45zm-6.63-31.84a1 1 0 0 0 .71.3h8l-.19.32a1 1 0 0 0-.56.89l-6.17 10.5V48.5a1 1 0 0 0-1-1h-8.1l7.07-12.2-.05 6.67a1 1 0 0 0 .29.7zm62.46 39.5a11.84 11.84 0 0 1-10.54-6.48 1.126 1.126 0 0 0-.51-1.04 11.83 11.83 0 1 1 11 7.52z"/><path data-name="Path 132" d="M77.841 43.17h-2.84a1 1 0 0 0 0 2h2.81a1 1 0 0 0 0-2z"/></svg>