<svg xmlns="http://www.w3.org/2000/svg" width="96" height="96" viewBox="0 0 96 96"><path data-name="Path 133" d="M48 96a48 48 0 1 1 48-48 48 48 0 0 1-48 48zm0-95a47 47 0 1 0 47 47A47 47 0 0 0 48 1z" fill="#e94400"/><path data-name="Path 134" d="M45.71 52.49h4.69c7.2 0 13.06-4 13.06-9l-1-9.42c0-4.25-4.57-7.71-10.19-7.71h-8.4c-4.19 0-7.79 1.92-9.35 4.64a.5.5 0 0 0-.5.5.49.49 0 0 0 .13.33 5.86 5.86 0 0 0-.47 2.17l-1 9.53c-.03 4.92 5.83 8.96 13.03 8.96zM34.67 34a5.06 5.06 0 0 1 .45-2.07h4.65a.5.5 0 0 0 0-1H35.7c1.53-2.16 4.61-3.64 8.16-3.64h8.38c3.54 0 6.61 1.47 8.15 3.64H43.75a.5.5 0 0 0 0 1H61a5.18 5.18 0 0 1 .47 2.13l1 9.42c0 4.41-5.41 8-12.06 8h-4.7c-6.65 0-12.06-3.58-12.07-7.94z"/><path data-name="Path 135" d="M59.65 54.3a3.65 3.65 0 1 0 3.65 3.65 3.65 3.65 0 0 0-3.65-3.65zm0 5.3a1.65 1.65 0 1 1 1.65-1.65 1.65 1.65 0 0 1-1.65 1.65z"/><path data-name="Path 136" d="M42.1 57.95a3.65 3.65 0 1 0-3.65 3.65 3.65 3.65 0 0 0 3.65-3.65zm-3.65 1.65a1.65 1.65 0 1 1 1.65-1.65 1.65 1.65 0 0 1-1.65 1.65z"/><path data-name="Path 137" d="M63.45 75.27a.47.47 0 0 0 0-.09.49.49 0 0 0-.37-.47L58 66.58a15.33 15.33 0 0 0 8.1-13.53l-1.2-16.48c0-7.21-5.35-13.07-11.92-13.07h-9.86c-6.57 0-11.92 5.86-11.92 13L30 53.09a15.32 15.32 0 0 0 9.23 14l-5.39 7.55a.5.5 0 0 0-.46.68l-.61.85a.5.5 0 0 0 .81.58l.8-1.12h28.14l.68 1.09a.5.5 0 1 0 .85-.53zM31 53.13l1.21-16.55c0-6.66 4.9-12.07 10.92-12.07H53c6 0 10.92 5.42 10.92 12.11l1.2 16.48a14.31 14.31 0 0 1-7.63 12.64l-.06-.09a.5.5 0 1 0-.85.53A14.17 14.17 0 0 1 54 67a6.29 6.29 0 0 0-12.57-.17A14.3 14.3 0 0 1 31 53.13zm21.86 14.1a14.278 14.278 0 0 1-2 .16H45.3a14.278 14.278 0 0 1-2-.16h.17a4.3 4.3 0 1 1 8.6 0zm-7.56 1.16h5.52A15.18 15.18 0 0 0 57.11 67l2.3 3.68h-21.5l2.27-3.18a15.19 15.19 0 0 0 5.12.89zm-10.23 6.28l2.13-3H60l1.86 3z"/></svg>