<svg id="Layer_1" data-name="Layer 1" xmlns="http://www.w3.org/2000/svg" viewBox="0 0 150 150"><defs><style>.cls-1,.cls-4{fill:#2b2b7f}.cls-2,.cls-3{fill:#f2f2f2}.cls-3,.cls-4{font-size:17.89px;font-family:BebasNeueBold,Bebas Neue;font-weight:700}.cls-4{font-size:14.2px;letter-spacing:.05em}</style></defs><title>Artboard 1 copy 13</title><path class="cls-1" d="M75.82 146.38A71.38 71.38 0 1 1 147.19 75a71.46 71.46 0 0 1-71.37 71.38zm0-139.75A68.38 68.38 0 1 0 144.19 75 68.45 68.45 0 0 0 75.82 6.62z"/><path class="cls-1" d="M75.82 8.76A66.24 66.24 0 1 0 142.06 75 66.24 66.24 0 0 0 75.82 8.76zm0 106.7A40.46 40.46 0 1 1 116.28 75a40.46 40.46 0 0 1-40.46 40.46z"/><path class="cls-2" d="M22.59 85.7l1.44 4.44h4.67l-3.78 2.74 1.44 4.45-3.77-2.75-3.78 2.75 1.44-4.45-3.78-2.74h4.67l1.45-4.44zM129.05 85.7l1.45 4.44h4.67l-3.78 2.74 1.44 4.45-3.78-2.75-3.78 2.75 1.45-4.45-3.78-2.74h4.67l1.44-4.44z"/><text class="cls-3" transform="rotate(-88.42 53.876 24.15)">r</text><text class="cls-3" transform="rotate(-79.12 56.48 17.585)">e</text><text class="cls-3" transform="rotate(-70.1 59.73 10.14)">r</text><text class="cls-3" transform="rotate(-60.97 63.545 .25)">a</text><text class="cls-3" transform="matrix(.58 -.81 .81 .58 36.42 48.94)"></text><text class="cls-3" transform="rotate(-48 71.313 -19.914)">r</text><text class="cls-3" transform="rotate(-38.9 79.219 -41.2)">e</text><text class="cls-3" transform="matrix(.86 -.5 .5 .86 48.92 36.21)">g</text><text class="cls-3" transform="rotate(-23.34 106.551 -117.977)">i</text><text class="cls-3" transform="rotate(-16.58 135.698 -187.164)">s</text><text class="cls-3" transform="rotate(-8.1 239.122 -453.706)">t</text><text class="cls-3" transform="translate(72.66 28.01)">e</text><text class="cls-3" transform="rotate(8.9 -140.316 525.882)">r</text><text class="cls-3" transform="rotate(17.75 -50.13 293.824)">e</text><text class="cls-3" transform="matrix(.89 .45 -.45 .89 93.86 31.41)">d</text><text class="cls-3" transform="rotate(33.41 -8.039 185.44)"></text><text class="cls-3" transform="rotate(39.78 .901 161.589)">p</text><text class="cls-3" transform="rotate(48.7 8.875 141.43)">r</text><text class="cls-3" transform="rotate(57.7 14.229 127.15)">o</text><text class="cls-3" transform="rotate(65.3 17.176 118.933)">j</text><text class="cls-3" transform="rotate(72.67 20.515 110.827)">e</text><text class="cls-3" transform="rotate(81.35 23.363 103.599)">c</text><text class="cls-3" transform="rotate(89.88 25.48 97.894)">t</text><path class="cls-2" d="M149.4 128.56H.6l8-12-8-12h148.8l-8 12 8 12z"/><text class="cls-4" transform="translate(16.48 121.33)">K-RERA/PRJ/141/2020</text><path class="cls-1" d="M107.8 74a31.94 31.94 0 1 1-30.87-30.83A31.94 31.94 0 0 1 107.8 74z"/><path class="cls-2" d="M76.72 92.4a4.08 4.08 0 0 1-6 .67L52.21 77a5.06 5.06 0 1 1 6.63-7.63l11.63 10.05A2.41 2.41 0 0 0 74 79l15.38-21a5.06 5.06 0 1 1 8.15 6z"/></svg>