<svg xmlns="http://www.w3.org/2000/svg" width="96" height="96" viewBox="0 0 96 96"><path data-name="Path 171" d="M48 96a48 48 0 1 1 48-48 48 48 0 0 1-48 48zm0-95a47 47 0 1 0 47 47A47 47 0 0 0 48 1z" fill="#e94400"/><path data-name="Rectangle 11" d="M23.022 75.017L37.236 23.45l1.928.531L24.95 75.548z"/><path data-name="Rectangle 12" d="M56.569 24.012l1.912-.588 15.47 50.305-1.912.588z"/><path data-name="Path 172" d="M48.5 27.21a1 1 0 0 1-1-1v-2.5a1 1 0 1 1 2 0v2.5a1 1 0 0 1-1 1z"/><path data-name="Path 173" d="M48.5 67.47a1 1 0 0 1-1-1v-5a1 1 0 1 1 2 0v5a1 1 0 0 1-1 1zm0-10.06a1 1 0 0 1-1-1v-5a1 1 0 0 1 2 0v5a1 1 0 0 1-1 .99zm0-10.06a1 1 0 0 1-1-1v-5a1 1 0 0 1 2 0v5a1 1 0 0 1-1 .99zm0-10.06a1 1 0 0 1-1-1v-5a1 1 0 0 1 2 0v5a1 1 0 0 1-1 .98z"/><path data-name="Path 174" d="M48.5 75a1 1 0 0 1-1-1v-2.5a1 1 0 0 1 2 0V74a1 1 0 0 1-1 1z"/></svg>