<svg xmlns="http://www.w3.org/2000/svg" width="94.897" height="99.962" viewBox="0 0 94.897 99.962"><g transform="translate(-3.139 -.568)"><path data-name="Path 175" d="M84.53 44.74l.14-.43a1 1 0 1 0-1.9-.61l-.14.43a18.42 18.42 0 0 0 .17 11.64 10.82 10.82 0 0 1 .2 8.11l-.23.62a1 1 0 1 0 1.88.7l.23-.62a12.76 12.76 0 0 0-.22-9.58 16.38 16.38 0 0 1-.13-10.26z"/><path data-name="Path 176" d="M18.59 56.3l-.23.62a1 1 0 1 0 1.87.7l.23-.62a12.76 12.76 0 0 0-.22-9.53 16.38 16.38 0 0 1-.13-10.31l.14-.43a1 1 0 1 0-1.9-.61l-.14.43a18.42 18.42 0 0 0 .17 11.64 10.83 10.83 0 0 1 .21 8.11z"/><path data-name="Path 177" d="M5.91 44.74l.09-.43a1 1 0 1 0-1.9-.61l-.1.43a18.42 18.42 0 0 0 .17 11.64 10.84 10.84 0 0 1 .21 8.11l-.23.62a1 1 0 1 0 1.85.7l.23-.62A12.76 12.76 0 0 0 6 55a16.38 16.38 0 0 1-.09-10.26z"/><path data-name="Path 178" d="M97 47.47a16.38 16.38 0 0 1-.13-10.31l.14-.43a1 1 0 1 0-1.9-.61l-.14.43a18.42 18.42 0 0 0 .17 11.64 10.83 10.83 0 0 1 .21 8.11l-.23.62a1 1 0 1 0 1.87.7l.23-.62a12.76 12.76 0 0 0-.22-9.53z"/><path data-name="Path 179" d="M77.36 73.27l-16.45-6.42A4.54 4.54 0 0 1 58 62.6v-5.67l7.69-4.86a6.49 6.49 0 0 0 3-5.52v-5.87l3.79-3.79a10.4 10.4 0 0 0 0-14.71L58.88 8.54a11.23 11.23 0 0 0-18.69-4.68L28.76 15.29a17.52 17.52 0 0 0 0 24.75l2.51 2.51v4a6.49 6.49 0 0 0 3 5.52L42 56.93v5.2a4.54 4.54 0 0 1-2.91 4.26l-16.52 6.45A13.54 13.54 0 0 0 14.93 85v15h2V85a11.51 11.51 0 0 1 6.43-10.31l16.45-6.42A6.53 6.53 0 0 0 44 62.13v-3.94l2.52 1.59a6.55 6.55 0 0 0 7 0L56 58.19v4.4a6.53 6.53 0 0 0 4.18 6.12l16.38 6.39a11.53 11.53 0 0 1 6.5 10.34V100h2V85.45a13.55 13.55 0 0 0-7.7-12.18zm-3.79-43.74a8.35 8.35 0 0 1-2.46 5.94l-3.27 3.27-15.39-15.38 3.62-3.62a11.15 11.15 0 0 0 3.29-7.9l11.75 11.75a8.35 8.35 0 0 1 2.46 5.94zm-43.4-12.82L41.61 5.28a9.21 9.21 0 0 1 10.32-1.89 1 1 0 0 0 .17.25 4.29 4.29 0 0 1 0 6.05l-7.93 7.93a1 1 0 1 0 1.4 1.38l7.93-7.93A6.27 6.27 0 0 0 55.3 6a9.23 9.23 0 0 1-.64 12.33L32.27 40.72l-2.09-2.09a15.52 15.52 0 0 1-.01-21.92zm22.25 41.38a4.54 4.54 0 0 1-4.83 0l-12.21-7.71a4.5 4.5 0 0 1-2.11-3.82v-4L51 24.78l15.7 15.7v6.08a4.5 4.5 0 0 1-2.11 3.82z"/><circle data-name="Ellipse 6" cx="1.87" cy="1.87" r="1.87" transform="translate(38.8 19.73)"/><path data-name="Path 180" d="M43.93 80.8H34a7 7 0 0 0-6.95 6.95v11.78a1 1 0 1 0 2 0V87.75A5 5 0 0 1 34 82.8h9.92a1 1 0 0 0 0-2z"/><path data-name="Path 181" d="M66 80.8h-9.93a1 1 0 0 0 0 2H66a5 5 0 0 1 4.95 4.95v11.78a1 1 0 1 0 2 0V87.75A7 7 0 0 0 66 80.8z"/><circle data-name="Ellipse 7" cx="1.87" cy="1.87" r="1.87" transform="translate(48.6 79.93)"/><ellipse data-name="Ellipse 8" cx="4.2" cy="1.4" rx="4.2" ry="1.4" transform="translate(45.8 48.2)"/></g></svg>