<svg xmlns="http://www.w3.org/2000/svg" width="74.5" height="98.3" viewBox="0 0 74.5 98.3"><path data-name="Path 182" d="M60.5 60.16H47.92a2.76 2.76 0 0 1-2.24-.85 4.45 4.45 0 0 1-.74-3 17.5 17.5 0 0 0 9.81-15.22 6 6 0 0 0 3.19-10.22v-6.29c3.71-2.58 5.92-5.91 5.92-9.58 0-8.43-11.64-15-26.5-15s-26.5 6.61-26.5 15c0 3.61 2.14 6.89 5.75 9.45v5.85a6 6 0 0 0 2.61 10.79 17.51 17.51 0 0 0 10.44 15.56 3.74 3.74 0 0 1 0 2.8 2.12 2.12 0 0 1-1.86.67H14a14 14 0 0 0-14 14v24h2V76.53h.14a5.67 5.67 0 0 0 2.92-1 14 14 0 0 0 4.25-4.37c2.08-3.3 2.71-6.62 1.83-8.65a12 12 0 0 1 2.86-.35h5.84l9.91 12.28 2.57-1.59.2.4a5.49 5.49 0 0 0 1 1.37l-2.77 23.42 2 .23 2.63-22.39a5.31 5.31 0 0 0 3.21.28l3.35 22.14 2-.3-3.46-22.64a5.45 5.45 0 0 0 1.51-1.51l.69-1 2 1.41 9.65-12.1h6.17a12 12 0 0 1 2.86.36c-.88 2-.24 5.36 1.83 8.65a14 14 0 0 0 4.25 4.43 5.67 5.67 0 0 0 2.92 1h.14v21.56h2v-24a14 14 0 0 0-14-14zM7.62 70.07a12 12 0 0 1-3.61 3.8 3.5 3.5 0 0 1-2 .65v-.36a12 12 0 0 1 7.24-11c.66 1.12.2 4-1.63 6.91zm47.13-31.04v-7.71a4 4 0 0 1 0 7.72zm1.17-9.45a5.94 5.94 0 0 0-1.17-.32v-2.84q.6-.29 1.17-.61zm-3.17-8.62v4.2a39.49 39.49 0 0 1-15.42 2.92 38.8 38.8 0 0 1-16.17-3.25v-2.78a180 180 0 0 0 23.82.42l-.14-2a182.742 182.742 0 0 1-24.59-.5l-1.09-.1v3.88l-.58-.36v-5.76a5 5 0 0 1 5-5h27.34a5 5 0 0 1 5 5v5.86c-.38.23-.76.46-1.17.68v-3.21zm-39.92-6c0-7.19 11-13 24.5-13s24.5 5.85 24.5 13c0 2.6-1.44 5-3.92 7.06v-4.39a7 7 0 0 0-7-7H23.58a7 7 0 0 0-7 7v4.3c-2.37-2.01-3.75-4.39-3.75-6.93zm5.75 10.72l.58.32v3.21a1.458 1.458 0 0 0-.58.12zm-2.5 9.48a4 4 0 0 1 3.08-3.88v7.78a4 4 0 0 1-3.08-3.9zm5.08 5.45V27a41.33 41.33 0 0 0 16.17 3 42 42 0 0 0 15.42-2.69v13.32a15.52 15.52 0 0 1-15.5 15.53h-.58a15.52 15.52 0 0 1-15.5-15.53zm15.51 17.55h.58a17.39 17.39 0 0 0 5.69-1 5.77 5.77 0 0 0 1.2 3.41 4.17 4.17 0 0 0 .47.44l-6.76 5.93-7-5.79a3.16 3.16 0 0 0 .52-.59 4.49 4.49 0 0 0 .54-3.11 17.42 17.42 0 0 0 4.76.71zm-14.26 4h6.48l7.27 6-5.94 3.68zm17.92 10.59a3.46 3.46 0 0 1-6-.39l-.28-.57 3.79-2.34 3.2 2.23zm4-1.23l-4.84-3.36 6.88-6h5.38zm26.19 2.35a12 12 0 0 1-3.61-3.8c-1.84-2.91-2.29-5.8-1.62-7a12 12 0 0 1 7.24 11v.4a3.5 3.5 0 0 1-2.04-.6z"/><path data-name="Path 183" d="M56 82.16h-5.42a3.67 3.67 0 0 0-3.67 3.67v1.5A3.67 3.67 0 0 0 50.58 91H56a3.67 3.67 0 0 0 3.67-3.67v-1.5A3.67 3.67 0 0 0 56 82.16zm1.67 5.17A1.67 1.67 0 0 1 56 89h-5.42a1.67 1.67 0 0 1-1.67-1.67v-1.5a1.67 1.67 0 0 1 1.67-1.67H56a1.67 1.67 0 0 1 1.67 1.67z"/><path data-name="Path 184" d="M24.08 82.16h-5.41A3.67 3.67 0 0 0 15 85.83v1.5A3.67 3.67 0 0 0 18.67 91h5.42a3.67 3.67 0 0 0 3.66-3.71v-1.5a3.67 3.67 0 0 0-3.67-3.63zm1.67 5.13a1.67 1.67 0 0 1-1.67 1.67h-5.41A1.67 1.67 0 0 1 17 87.29v-1.5a1.67 1.67 0 0 1 1.67-1.63h5.42a1.67 1.67 0 0 1 1.66 1.63z"/><path data-name="Rectangle 13" d="M62.5 83.13h2v15.03h-2z"/><path data-name="Rectangle 14" d="M10.08 83.13h2v15.03h-2z"/></svg>