<svg xmlns="http://www.w3.org/2000/svg" width="95.76" height="95.525" viewBox="0 0 95.76 95.525"><path d="M91.13 86.69H78.8a2.585 2.585 0 0 1 0-5.17h12.5a4.25 4.25 0 0 0 0-8.5H68.76v-33.7a26.65 26.65 0 0 0-25.62-26.6v-7H27.38v4H9.09V0H.21v48.16h8.87V38.02h18.3v4.42h15.75v-6.28a4.25 4.25 0 0 1 3.25 4.16v32.7H18.3a4.25 4.25 0 1 0 0 8.5h5.17a2.585 2.585 0 1 1 0 5.17H4.63a4.42 4.42 0 1 0 0 8.83h86.5a4.42 4.42 0 1 0 0-8.83zM66.76 39.32v33.7h-4.38v-27.2a1 1 0 0 0-2 0v27.2h-5.12V39.57a13.13 13.13 0 0 0-12.13-13.08v-5a18.26 18.26 0 0 1 17.25 18.22v1.73a1 1 0 0 0 2 0v-1.73a20.26 20.26 0 0 0-19.25-20.2v-4.79a24.65 24.65 0 0 1 23.63 24.6zM7.09 46.16H2.21V2h4.87zm2-10.11V11.69h18.29v24.33zm32 4.42H29.38V7.69h11.75zm2-6.29v-5.69a11.14 11.14 0 0 1 10.17 11.08v33.45h-4.88v-32.7a6.25 6.25 0 0 0-5.25-6.16zm48 59.37H4.63a2.42 2.42 0 1 1 0-4.83h18.83a4.585 4.585 0 0 0 0-9.17H18.3a2.25 2.25 0 0 1 0-4.5h73a2.25 2.25 0 0 1 0 4.5H78.8a4.585 4.585 0 1 0 0 9.17h12.33a2.42 2.42 0 1 1 0 4.83z"/></svg>