<svg xmlns="http://www.w3.org/2000/svg" width="96" height="96" viewBox="0 0 96 96"><g data-name="West Fort"><path data-name="Path 188" d="M48 96a48 48 0 1 1 48-48 48 48 0 0 1-48 48zm0-95a47 47 0 1 0 47 47A47 47 0 0 0 48 1z" fill="#e94400"/><path data-name="Path 189" d="M29.22 37.91h-6v-6h6zm-4.81-1.23H28v-3.59h-3.59z"/><path data-name="Path 190" d="M29.22 44.91h-6v-6h6zm-4.81-1.23H28V40.1h-3.59z"/><path data-name="Path 191" d="M29.22 51.92h-6v-6h6zm-4.81-1.23H28v-3.58h-3.59z"/><path data-name="Path 192" d="M29.22 58.93h-6v-6h6zm-4.81-1.23H28v-3.59h-3.59z"/><path data-name="Path 193" d="M37 37.91h-6v-6h6zm-4.81-1.23h3.59v-3.59h-3.59z"/><path data-name="Path 194" d="M37 44.91h-6v-6h6zm-4.81-1.23h3.59V40.1h-3.59z"/><path data-name="Path 195" d="M37 51.92h-6v-6h6zm-4.81-1.23h3.59v-3.58h-3.59z"/><path data-name="Path 196" d="M60.63 54.74h-6v-6h6zm-4.81-1.23h3.58v-3.58h-3.59z"/><path data-name="Path 197" d="M70.31 54.74h-6v-6h6zm-4.81-1.23h3.59v-3.58H65.5z"/><path data-name="Path 198" d="M60.63 62.37h-6v-6h6zm-4.81-1.23h3.58v-3.58h-3.59z"/><path data-name="Path 199" d="M70.31 62.37h-6v-6h6zm-4.81-1.23h3.59v-3.58H65.5z"/><path data-name="Path 200" d="M37 58.93h-6v-6h6zm-4.81-1.23h3.59v-3.59h-3.59z"/><path data-name="Path 201" d="M44.78 37.91h-6v-6h6zM40 36.68h3.59v-3.59H40z"/><path data-name="Path 202" d="M44.78 44.91h-6v-6h6zM40 43.69h3.59V40.1H40z"/><path data-name="Path 203" d="M44.78 51.92h-6v-6h6zM40 50.69h3.59v-3.58H40z"/><path data-name="Path 204" d="M44.78 58.93h-6v-6h6zM40 57.7h3.59v-3.59H40z"/><path data-name="Path 205" d="M76.86 77.55H18.51V27.32h30.1v7.57h-1.22v-6.34H19.74v47.77h55.9v-3.01h1.22z"/><path data-name="Path 206" d="M46 28.55H21.14v-3a3.49 3.49 0 0 1 3.49-3.49H42.5a3.49 3.49 0 0 1 3.5 3.5zm-23.64-1.23h22.4v-1.76a2.26 2.26 0 0 0-2.26-2.26H24.63a2.26 2.26 0 0 0-2.26 2.26z"/><path data-name="Path 207" d="M44.43 23.3H23.18v-.77a4.09 4.09 0 0 1 4.08-4.08h13.08a4.09 4.09 0 0 1 4.08 4.08zm-20-1.23h18.73a2.86 2.86 0 0 0-2.82-2.4H27.26a2.86 2.86 0 0 0-2.82 2.4z"/><path data-name="Path 208" d="M77.49 47.11H47.07v-5.83h30.42zM48.3 45.88h28v-3.37h-28z"/><path data-name="Path 209" d="M49.26 38.67l-.74-.97 13.77-10.54 13.22 10.55-.77.96-12.47-9.95z"/><path data-name="Path 210" d="M38.57 77.55H31v-11.6h7.62zm-6.39-1.23h5.16v-9.14h-5.15z"/><path data-name="Path 211" d="M66.07 77.55h-7.23v-11.6h7.23zm-6-1.23h4.77v-9.14h-4.77z"/><path data-name="Rectangle 15" d="M74.51 48.9h1.23v11.54h-1.23z"/><path data-name="Rectangle 16" d="M48.76 48.9h1.23v9.41h-1.23z"/><path data-name="Rectangle 17" d="M47.76 66.56h1.23v10.38h-1.23z"/><path data-name="Path 212" d="M48.16 72.36c-2.78 0-5-3.39-5-7.71s2.18-7.71 5-7.71 5 3.39 5 7.71-2.22 7.71-5 7.71zm0-14.19c-2 0-3.73 3-3.73 6.48s1.71 6.48 3.73 6.48 3.73-3 3.73-6.48-1.71-6.47-3.73-6.47z"/><path data-name="Rectangle 18" d="M72.11 69.02h1.23v7.92h-1.23z"/><path data-name="Path 213" d="M72.56 73.59c-2.2 0-3.93-2.65-3.93-6s1.73-6 3.93-6 3.93 2.65 3.93 6-1.73 6-3.93 6zm0-10.83c-1.46 0-2.7 2.2-2.7 4.8s1.24 4.8 2.7 4.8 2.7-2.2 2.7-4.8-1.26-4.8-2.7-4.8z"/><path data-name="Rectangle 19" d="M23.38 68.53h1.23v8.41h-1.23z"/><path data-name="Path 214" d="M23.81 73.35c-2.32 0-4.13-2.8-4.13-6.36s1.82-6.36 4.13-6.36 4.13 2.8 4.13 6.36-1.81 6.36-4.13 6.36zm0-11.5c-1.58 0-2.91 2.35-2.91 5.14s1.33 5.14 2.91 5.14 2.91-2.35 2.91-5.14-1.33-5.14-2.91-5.14z"/></g></svg>