<svg xmlns="http://www.w3.org/2000/svg" width="47.5" height="47.5" viewBox="0 0 47.5 47.5"><path data-name="Path 215" d="M23.75 0A23.75 23.75 0 1 0 47.5 23.75 23.75 23.75 0 0 0 23.75 0zm0 45.75a22 22 0 1 1 22-22 22 22 0 0 1-22 22z"/><path data-name="Path 216" d="M39.97 21.1l-.22-2.87a5.46 5.46 0 0 0-5.52-5.28l-2.33-.2c-2.71-.18-5.44-.27-8.15-.27s-5.45.1-8.15.27l-2.3.25a5.77 5.77 0 0 0-3.86 1.53 5.29 5.29 0 0 0-1.69 3.7l-.25 2.88a31.33 31.33 0 0 0 0 5.3l.25 2.86a5.46 5.46 0 0 0 5.52 5.28l2.3.25c2.71.18 5.44.27 8.15.27s5.44-.1 8.15-.27l2.3-.25a5.46 5.46 0 0 0 5.58-5.28l.25-2.88a31.329 31.329 0 0 0-.03-5.29zm-19.55 7.44v-9.58l8.33 4.79z"/></svg>